<?xml version="1.0" encoding="UTF-8" standalone="no"?>
<!-- Created with Inkscape (http://www.inkscape.org/) -->

<svg
   xmlns:dc="http://purl.org/dc/elements/1.1/"
   xmlns:cc="http://creativecommons.org/ns#"
   xmlns:rdf="http://www.w3.org/1999/02/22-rdf-syntax-ns#"
   xmlns:svg="http://www.w3.org/2000/svg"
   xmlns="http://www.w3.org/2000/svg"
   xmlns:sodipodi="http://sodipodi.sourceforge.net/DTD/sodipodi-0.dtd"
   xmlns:inkscape="http://www.inkscape.org/namespaces/inkscape"
   width="297mm"
   height="210mm"
   viewBox="0 0 297 210"
   version="1.1"
   id="svg1854"
   inkscape:version="0.92.3 (2405546, 2018-03-11)"
   sodipodi:docname="404.svg">
  <defs
     id="defs1848" />
  <sodipodi:namedview
     id="base"
     pagecolor="#ffffff"
     bordercolor="#666666"
     borderopacity="1.0"
     inkscape:pageopacity="0.0"
     inkscape:pageshadow="2"
     inkscape:zoom="0.49497474"
     inkscape:cx="430.65813"
     inkscape:cy="455.09536"
     inkscape:document-units="mm"
     inkscape:current-layer="layer1"
     showgrid="false"
     inkscape:window-width="1366"
     inkscape:window-height="711"
     inkscape:window-x="0"
     inkscape:window-y="27"
     inkscape:window-maximized="1" />
  <metadata
     id="metadata1851">
    <rdf:RDF>
      <cc:Work
         rdf:about="">
        <dc:format>image/svg+xml</dc:format>
        <dc:type
           rdf:resource="http://purl.org/dc/dcmitype/StillImage" />
        <dc:title />
      </cc:Work>
    </rdf:RDF>
  </metadata>
  <g
     inkscape:label="Capa 1"
     inkscape:groupmode="layer"
     id="layer1"
     transform="translate(0,-87)">
    <g
       id="g1599"
       transform="matrix(0.63339219,0,0,0.63339219,409.18829,-170.24765)">
      <path
         inkscape:connector-curvature="0"
         id="path1487"
         d="m -360.63607,546.10752 c -1.06224,0.14312 -3.14141,10.14156 -8.12663,5.85854 -2.26785,-1.13393 -2.83446,8.12641 -5.48029,3.21273 -2.64582,-4.91368 -5.29166,10.58333 -5.29166,10.58333 l 4.53564,8.69352 c 0,0 8.31525,-2.45663 9.63817,-3.02358 1.32292,-0.56697 -0.75603,-2.07893 -0.75603,-2.07893 0,0 3.96897,-0.3782 4.91391,-2.26809 0.94494,-1.88987 -0.56689,-3.40135 -0.56689,-3.40135 0,0 2.26756,-0.56703 3.59048,-0.75602 1.32291,-0.18899 3.77992,-4.91376 0.18914,-7.37061 -0.3166,-0.21661 -0.56907,-0.38089 -0.79479,-0.52347 0.22471,-1.01563 0.69659,-2.92725 1.36168,-4.39045 0.94494,-2.07886 -1.70082,-4.15766 -3.21273,-4.53562 z m 8.36694,24.075 c -1.05461,-0.19135 -6.11566,8.67896 -9.53741,3.06752 -1.25677,-0.0891 -3.03353,11.22357 -6.20427,1.36634 -0.79289,-2.46499 -7.7943,10.26019 -8.27236,8.57826 l 1.60972,9.52657 c 0,0 8.66791,0.22651 10.10119,0.0951 1.43332,-0.13147 -0.078,-2.21073 -0.078,-2.21073 -0.22403,-4.16499 3.7419,-1.92109 5.37332,-0.64233 1.66297,1.30347 0.50953,-3.41066 0.50953,-3.41066 -0.12643,-0.83529 1.83232,-3.1423 3.64887,0.38809 1.31672,0.22812 5.11087,-3.50928 2.45256,-6.95357 -0.23441,-0.30371 -0.42402,-0.53784 -0.59479,-0.74311 0.52698,-0.89696 1.56528,-2.56971 2.64893,-3.75637 1.53989,-1.68621 -0.33555,-4.47937 -1.65726,-5.3051 z m -24.01404,13.01212 -0.0243,-0.1421 c 0.004,0.0568 0.0129,0.10207 0.0243,0.1421 z m 11.99823,10.14204 c -2.06279,0.11644 -10.38548,7.18264 -10.26242,5.65131 l -1.76682,9.50124 c 0,0 8.06064,3.19535 9.45162,3.56516 1.39101,0.36981 0.6873,-2.1022 0.6873,-2.1022 1.2229,-3.98772 4.1746,-0.51612 5.26634,1.24593 1.11286,1.79612 1.6521,-3.02721 1.6521,-3.02721 0.16874,-0.8278 2.80209,-2.31984 3.29282,1.62005 1.15781,0.66728 6.00603,-1.5362 4.69532,-5.68492 -0.11553,-0.36568 -0.21314,-0.65085 -0.30282,-0.90228 0.80344,-0.66082 2.35429,-1.87407 3.78013,-2.61533 2.0261,-1.05336 1.22608,-4.32149 0.26923,-5.55162 -0.92435,-0.54258 -8.72846,6.0447 -10.01024,-0.4015 -1.14935,-0.51618 -6.71069,9.49417 -6.29574,-0.85215 0.0133,-0.33112 -0.15426,-0.46357 -0.45682,-0.44648 z m -10.26242,5.65131 0.0258,-0.13901 c -0.0156,0.0535 -0.0225,0.0981 -0.0258,0.13901 z"
         style="fill:#f393a4;fill-opacity:1;stroke:#000000;stroke-width:1.5;stroke-linecap:butt;stroke-linejoin:miter;stroke-miterlimit:4;stroke-dasharray:none;stroke-opacity:1" />
      <path
         inkscape:connector-curvature="0"
         id="path1489"
         d="m -486.07794,546.16284 c -1.51191,0.37798 -4.15818,2.45676 -3.21324,4.53565 0.66498,1.46296 1.13745,3.37417 1.36219,4.38991 -0.22572,0.14258 -0.47819,0.30737 -0.79478,0.52401 -3.59078,2.45684 -1.13429,7.18108 0.18861,7.37007 1.32293,0.18899 3.591,0.75605 3.591,0.75605 0,0 -1.51183,1.51196 -0.56689,3.40185 0.94494,1.88987 4.91339,2.26806 4.91339,2.26806 0,0 -2.07894,1.51199 -0.75602,2.07897 1.32292,0.56695 9.63869,3.02358 9.63869,3.02358 l 4.53564,-8.69352 c 0,0 -2.64584,-15.49702 -5.29167,-10.58334 -2.64583,4.91369 -3.21295,-4.34665 -5.4808,-3.21273 -4.98522,4.28303 -7.06388,-5.71542 -8.12612,-5.85856 z m -8.36693,24.07502 c -1.32171,0.82571 -3.19767,3.61886 -1.65778,5.30511 1.08365,1.18663 2.12247,2.85887 2.64945,3.75584 -0.1708,0.20529 -0.36032,0.43981 -0.5948,0.74363 -2.65831,3.44427 1.13533,7.18117 2.45205,6.95304 1.81655,-3.53039 3.7753,-1.22338 3.64887,-0.38806 0,0 -1.15344,4.71464 0.50953,3.41114 1.63142,-1.27873 5.59787,-3.52264 5.37384,0.64235 0,0 -1.51136,2.07926 -0.078,2.2107 1.43328,0.13145 10.1012,-0.0956 10.1012,-0.0956 l 1.61023,-9.5281 c -0.47279,1.69471 -7.48017,-11.04225 -8.27339,-8.57623 -3.17074,9.85724 -4.94751,-1.45544 -6.20428,-1.3663 -3.42175,5.61144 -8.48227,-3.2589 -9.53688,-3.06753 z m 24.01455,13.01006 c 0.0111,-0.0396 0.02,-0.0843 0.0238,-0.14004 z m -11.99875,10.14357 c -0.30255,-0.0171 -0.47061,0.11589 -0.45733,0.44699 0.41495,10.34635 -5.14588,0.33547 -6.29523,0.85164 -1.28178,6.4462 -9.08589,-0.14107 -10.01024,0.40153 -0.95685,1.2301 -1.75686,4.49877 0.26924,5.5521 1.42583,0.74128 2.97668,1.954 3.78013,2.61482 -0.0897,0.25154 -0.18722,0.5369 -0.30283,0.90281 -1.31071,4.1487 3.53751,6.35167 4.69532,5.68439 0.49073,-3.93988 3.12357,-2.44734 3.29231,-1.61954 0,0 0.53923,4.82336 1.65209,3.02721 1.09174,-1.76205 4.04345,-5.23415 5.26635,-1.24643 0,0 -0.7032,2.47253 0.68781,2.10272 1.39098,-0.36981 9.45111,-3.56515 9.45111,-3.56515 l -1.7663,-9.50021 c 0.11915,1.52702 -8.20011,-5.53646 -10.26243,-5.65288 z m 10.26243,5.65288 c -0.003,-0.0411 -0.0106,-0.0866 -0.0264,-0.14055 z"
         style="fill:#f393a4;fill-opacity:1;stroke:#000000;stroke-width:1.5;stroke-linecap:butt;stroke-linejoin:miter;stroke-miterlimit:4;stroke-dasharray:none;stroke-opacity:1" />
      <path
         inkscape:connector-curvature="0"
         id="path1467"
         d="m -429.8726,545.74479 c -0.88352,0.004 -1.77575,0.0177 -2.67734,0.0398 -16.48338,0.40312 -27.51955,9.25322 -34.62941,20.03288 -7.59865,9.45205 -11.62603,21.31475 -13.301,30.34336 -7.46614,40.24437 21.12899,46.57172 51.94774,48.62701 21.52951,1.43579 42.98484,-4.66336 52.22679,-19.80862 7.96975,-9.30687 10.62442,-22.89796 3.9062,-41.28015 -11.3511,-29.49991 -30.08341,-38.08783 -57.47298,-37.95427 z"
         style="opacity:1;fill:#fae1e7;fill-opacity:1;stroke:#000000;stroke-width:1;stroke-linecap:round;stroke-linejoin:round;stroke-miterlimit:4;stroke-dasharray:none;stroke-opacity:1" />
      <path
         id="path1491"
         d="m -453.7794,606.19204 a 8.8198938,12.828937 0 0 1 -8.74316,-12.92319 8.8198938,12.828937 0 0 1 8.87343,-12.73396 8.8198938,12.828937 0 0 1 8.76601,12.8904 8.8198938,12.828937 0 0 1 -8.85086,12.76715"
         style="opacity:1;fill:#1a1a1a;fill-opacity:1;stroke:none;stroke-width:1.5;stroke-linecap:round;stroke-linejoin:round;stroke-miterlimit:4;stroke-dasharray:none;stroke-opacity:1"
         inkscape:connector-curvature="0" />
      <path
         id="path1493"
         d="m -398.18736,606.18667 a 8.8198938,12.828937 0 0 1 -8.74316,-12.92319 8.8198938,12.828937 0 0 1 8.87343,-12.73396 8.8198938,12.828937 0 0 1 8.76601,12.8904 8.8198938,12.828937 0 0 1 -8.85085,12.76715"
         style="opacity:1;fill:#1a1a1a;fill-opacity:1;stroke:none;stroke-width:1.5;stroke-linecap:round;stroke-linejoin:round;stroke-miterlimit:4;stroke-dasharray:none;stroke-opacity:1"
         inkscape:connector-curvature="0" />
      <path
         id="path1495"
         d="m -449.73096,592.82898 a 4.2763119,2.4054255 0 0 1 -4.23911,-2.4231 4.2763119,2.4054255 0 0 1 4.30227,-2.38762 4.2763119,2.4054255 0 0 1 4.25018,2.41695 4.2763119,2.4054255 0 0 1 -4.29132,2.39385"
         style="opacity:0.95999995;fill:#ffffff;fill-opacity:1;stroke:none;stroke-width:1.5;stroke-linecap:round;stroke-linejoin:round;stroke-miterlimit:4;stroke-dasharray:none;stroke-opacity:1"
         inkscape:connector-curvature="0" />
      <path
         id="path1497"
         d="m -402.95881,597.10513 a 4.2763119,6.6817374 0 0 1 -4.23911,-6.73083 4.2763119,6.6817374 0 0 1 4.30227,-6.63227 4.2763119,6.6817374 0 0 1 4.25019,6.71375 4.2763119,6.6817374 0 0 1 -4.29132,6.64956"
         style="opacity:0.95999995;fill:#ffffff;fill-opacity:1;stroke:none;stroke-width:2.5;stroke-linecap:round;stroke-linejoin:round;stroke-miterlimit:4;stroke-dasharray:none;stroke-opacity:1"
         inkscape:connector-curvature="0" />
      <path
         id="path1499"
         d="m -453.31108,618.66218 a 8.6934528,3.0238092 0 0 1 -8.61782,-3.04602 8.6934528,3.0238092 0 0 1 8.74622,-3.00142 8.6934528,3.0238092 0 0 1 8.64035,3.03829 8.6934528,3.0238092 0 0 1 -8.72398,3.00925"
         style="opacity:1;fill:#ffaacc;fill-opacity:1;stroke:none;stroke-width:1.5;stroke-linecap:round;stroke-linejoin:round;stroke-miterlimit:4;stroke-dasharray:none;stroke-opacity:1"
         inkscape:connector-curvature="0" />
      <path
         id="path1501"
         d="m -398.88252,617.52827 a 8.6934528,3.0238092 0 0 1 -8.61782,-3.04602 8.6934528,3.0238092 0 0 1 8.74622,-3.00143 8.6934528,3.0238092 0 0 1 8.64034,3.0383 8.6934528,3.0238092 0 0 1 -8.72397,3.00925"
         style="opacity:1;fill:#ffaacc;fill-opacity:1;stroke:none;stroke-width:1.5;stroke-linecap:round;stroke-linejoin:round;stroke-miterlimit:4;stroke-dasharray:none;stroke-opacity:1"
         inkscape:connector-curvature="0" />
      <path
         id="path1503"
         d="m -87.279028,583.27793 c 8.600462,-0.50208 15.910419,6.52077 16.361045,15.00574 0.233788,4.40208 -1.355913,8.78541 -4.299284,12.05858"
         style="fill:none;fill-rule:evenodd;stroke:#000000;stroke-width:0.98410189;stroke-linecap:round;stroke-miterlimit:4;stroke-dasharray:none"
         transform="matrix(0.22770363,-0.90339764,0.45843468,0.42867036,-681.58082,289.52696)"
         inkscape:connector-curvature="0" />
      <path
         id="path1510"
         d="m 453.68855,606.19204 a 8.8198938,12.828937 0 0 1 -8.74316,-12.92319 8.8198938,12.828937 0 0 1 8.87343,-12.73396 8.8198938,12.828937 0 0 1 8.76602,12.8904 8.8198938,12.828937 0 0 1 -8.85086,12.76715"
         style="opacity:1;fill:#1a1a1a;fill-opacity:1;stroke:none;stroke-width:1.5;stroke-linecap:round;stroke-linejoin:round;stroke-miterlimit:4;stroke-dasharray:none;stroke-opacity:1"
         transform="scale(-1,1)"
         inkscape:connector-curvature="0" />
      <path
         id="path1512"
         d="m 448.91711,597.1105 a 4.2763119,6.6817374 0 0 1 -4.23911,-6.73083 4.2763119,6.6817374 0 0 1 4.30227,-6.63227 4.2763119,6.6817374 0 0 1 4.25019,6.71375 4.2763119,6.6817374 0 0 1 -4.29133,6.64956"
         style="opacity:0.95999995;fill:#ffffff;fill-opacity:1;stroke:none;stroke-width:2.5;stroke-linecap:round;stroke-linejoin:round;stroke-miterlimit:4;stroke-dasharray:none;stroke-opacity:1"
         transform="scale(-1,1)"
         inkscape:connector-curvature="0" />
    </g>
    <g
       aria-label="4"
       style="font-style:normal;font-variant:normal;font-weight:normal;font-stretch:normal;font-size:189.53034973px;line-height:1.25;font-family:Brieston;-inkscape-font-specification:'Brieston, Normal';font-variant-ligatures:normal;font-variant-caps:normal;font-variant-numeric:normal;font-feature-settings:normal;text-align:start;letter-spacing:0px;word-spacing:0px;writing-mode:lr-tb;text-anchor:start;fill:#fae1e7;fill-opacity:1;stroke:#000000;stroke-width:2.03800011;stroke-miterlimit:4;stroke-dasharray:none"
       id="text1544"
       transform="matrix(0.63339219,0,0,0.63339219,434.69819,-161.41304)">
      <path
         d="m -568.96273,569.85835 v -11.94041 q -0.75812,0.75812 -1.51625,1.8953 -0.94765,0.94766 -1.70577,2.08484 -0.56859,1.13718 -1.13718,2.27436 -0.56859,0.94765 -1.13718,2.08484 -0.37906,1.13718 -0.94765,2.08483 -1.70578,3.22202 -3.60108,6.2545 -1.8953,2.84296 -3.60108,6.06497 -2.08483,3.79061 -3.41154,7.96028 -1.32672,3.98013 -3.22202,7.77074 -0.18953,0.75812 -0.56859,1.70577 -0.18953,0.75813 -0.56859,1.32672 0,0.37906 -0.18953,0.56859 -0.37906,1.51624 -0.75812,2.27436 -1.13719,2.65343 -1.70578,4.73826 -0.37906,2.4639 -1.13718,4.92779 -0.56859,2.27436 -1.32671,4.73826 -0.18953,0.94765 -0.37906,1.8953 0,0.94765 0,1.89531 1.51624,0.56859 2.46389,1.32671 0.94765,0.56859 0.94765,2.65342 0,0.56859 -0.75812,1.89531 -0.75812,1.13718 -1.13718,1.32671 -2.08483,1.8953 -4.73826,3.22201 -2.65342,1.32672 -6.63356,1.32672 -5.49638,0 -9.09746,-4.16967 -3.60107,-4.3592 -3.60107,-9.66605 0,-3.22201 0.56859,-6.06497 0.56859,-3.03248 1.51624,-5.87544 0.37906,-1.51624 0.94765,-2.84296 0.56859,-1.32671 0.94765,-2.84295 -6.06497,0 -11.94041,-0.37906 -5.68591,-0.56859 -11.56135,-0.94765 -1.32671,-0.18953 -2.46389,-0.18953 -1.13719,0 -2.4639,0 -1.32671,0 -2.65342,0.18953 -1.32672,0 -2.84296,0 -0.94765,0 -1.8953,-0.18953 -0.94765,-0.18953 -1.89531,-0.18953 -0.18953,0 -0.37906,0.18953 0,0 -0.37906,0 -0.56859,0 -1.70577,-0.75812 -0.94765,-0.75813 -1.8953,-1.70578 -0.75813,-0.94765 -1.51625,-1.8953 -0.75812,-0.94765 -0.75812,-1.13718 0,-0.56859 -0.37906,-2.08484 -0.18953,-1.51624 -0.37906,-3.03248 -0.18953,-1.51625 -0.37906,-2.84296 -0.18953,-1.32671 -0.18953,-1.8953 0,-1.51624 0.18953,-2.65343 0.18953,-1.13718 1.13718,-2.27436 0.94765,-2.08483 2.4639,-3.22202 1.51624,-1.13718 2.84295,-2.08483 6.82309,-4.3592 12.69853,-8.52887 6.06498,-4.16966 11.56136,-8.52886 5.49638,-4.3592 10.80323,-9.09746 5.49638,-4.92779 11.18229,-10.80323 0.75812,-0.75812 1.70577,-1.70577 1.13718,-1.13718 2.46389,-2.08484 1.32672,-0.94765 2.4639,-1.51624 1.32671,-0.75812 2.46389,-0.75812 0.56859,0 1.70578,0.37906 1.32671,0.18953 3.03248,1.13718 2.27437,0.94765 4.54873,2.27437 2.27436,1.32671 4.3592,2.84295 2.08483,1.13718 3.79061,3.41155 h -4.73826 q 0.94765,0 2.27436,0.18953 1.51624,0.18953 3.03249,0.56859 0.56859,1.13718 0.56859,2.08483 0,0.18953 -0.18953,0.37906 0,0.18953 0,0.5686 l 4.92779,-1.51625 q 1.13718,0.37906 2.84295,1.13718 1.70577,0.5686 3.22202,1.51625 1.51624,0.75812 2.65342,2.08483 1.13718,1.13718 1.13718,2.84296 0,0.18953 -0.18953,0.37906 0,0.18953 0,0.56859 z m -56.48005,10.99276 q 1.32672,0.18953 2.4639,0.37906 1.32671,0 2.46389,0.18953 0.37906,0 0.75812,0.18953 0.37906,0.18953 0.75812,0.18953 0.37907,0 0.5686,-0.18953 0.37906,-0.18953 0.75812,-0.18953 0.37906,0 0.56859,0.18953 0.37906,0.18953 0.75812,0.18953 h 1.13718 q 0.75812,0 1.13718,0.18953 0.56859,0.18954 1.32672,0.18954 1.13718,0 2.27436,0 1.13718,-0.18954 2.27436,-0.37907 0.37907,-1.13718 0.5686,-1.8953 2.08483,-4.54873 3.98013,-9.09746 2.08484,-4.73825 3.98014,-9.47651 -0.37906,0.18953 -0.94765,0.75812 -1.51624,0.94765 -3.03249,1.8953 -1.32671,0.75812 -2.84295,1.70577 -3.60108,2.27437 -6.82309,4.92779 -3.03249,2.65343 -6.63357,4.92779 -0.94765,0.37906 -1.51624,0.94765 -0.37906,0.37907 -1.32671,0.75813 -0.94765,0.94765 -2.4639,1.8953 -0.75812,0.37906 -1.32671,0.75812 -0.56859,0.37906 -1.32671,0.75812 0.75812,0 1.32671,0.18953 0.56859,0 1.13718,0 z"
         style="font-style:normal;font-variant:normal;font-weight:normal;font-stretch:normal;font-size:189.53034973px;font-family:Brieston;-inkscape-font-specification:'Brieston, Normal';font-variant-ligatures:normal;font-variant-caps:normal;font-variant-numeric:normal;font-feature-settings:normal;text-align:start;writing-mode:lr-tb;text-anchor:start;fill:#fae1e7;fill-opacity:1;stroke:#000000;stroke-width:2.03800011;stroke-miterlimit:4;stroke-dasharray:none"
         id="path1546"
         inkscape:connector-curvature="0" />
    </g>
    <g
       id="g1551"
       style="font-style:normal;font-variant:normal;font-weight:normal;font-stretch:normal;font-size:189.53034973px;line-height:1.25;font-family:Brieston;-inkscape-font-specification:'Brieston, Normal';font-variant-ligatures:normal;font-variant-caps:normal;font-variant-numeric:normal;font-feature-settings:normal;text-align:start;letter-spacing:0px;word-spacing:0px;writing-mode:lr-tb;text-anchor:start;fill:#fae1e7;fill-opacity:1;stroke:#000000;stroke-width:2.03800011;stroke-miterlimit:4;stroke-dasharray:none"
       aria-label="4"
       transform="matrix(0.63339219,0,0,0.63339219,623.35104,-161.41304)">
      <path
         id="path1549"
         style="font-style:normal;font-variant:normal;font-weight:normal;font-stretch:normal;font-size:189.53034973px;font-family:Brieston;-inkscape-font-specification:'Brieston, Normal';font-variant-ligatures:normal;font-variant-caps:normal;font-variant-numeric:normal;font-feature-settings:normal;text-align:start;writing-mode:lr-tb;text-anchor:start;fill:#fae1e7;fill-opacity:1;stroke:#000000;stroke-width:2.03800011;stroke-miterlimit:4;stroke-dasharray:none"
         d="m -568.96273,569.85835 v -11.94041 q -0.75812,0.75812 -1.51625,1.8953 -0.94765,0.94766 -1.70577,2.08484 -0.56859,1.13718 -1.13718,2.27436 -0.56859,0.94765 -1.13718,2.08484 -0.37906,1.13718 -0.94765,2.08483 -1.70578,3.22202 -3.60108,6.2545 -1.8953,2.84296 -3.60108,6.06497 -2.08483,3.79061 -3.41154,7.96028 -1.32672,3.98013 -3.22202,7.77074 -0.18953,0.75812 -0.56859,1.70577 -0.18953,0.75813 -0.56859,1.32672 0,0.37906 -0.18953,0.56859 -0.37906,1.51624 -0.75812,2.27436 -1.13719,2.65343 -1.70578,4.73826 -0.37906,2.4639 -1.13718,4.92779 -0.56859,2.27436 -1.32671,4.73826 -0.18953,0.94765 -0.37906,1.8953 0,0.94765 0,1.89531 1.51624,0.56859 2.46389,1.32671 0.94765,0.56859 0.94765,2.65342 0,0.56859 -0.75812,1.89531 -0.75812,1.13718 -1.13718,1.32671 -2.08483,1.8953 -4.73826,3.22201 -2.65342,1.32672 -6.63356,1.32672 -5.49638,0 -9.09746,-4.16967 -3.60107,-4.3592 -3.60107,-9.66605 0,-3.22201 0.56859,-6.06497 0.56859,-3.03248 1.51624,-5.87544 0.37906,-1.51624 0.94765,-2.84296 0.56859,-1.32671 0.94765,-2.84295 -6.06497,0 -11.94041,-0.37906 -5.68591,-0.56859 -11.56135,-0.94765 -1.32671,-0.18953 -2.46389,-0.18953 -1.13719,0 -2.4639,0 -1.32671,0 -2.65342,0.18953 -1.32672,0 -2.84296,0 -0.94765,0 -1.8953,-0.18953 -0.94765,-0.18953 -1.89531,-0.18953 -0.18953,0 -0.37906,0.18953 0,0 -0.37906,0 -0.56859,0 -1.70577,-0.75812 -0.94765,-0.75813 -1.8953,-1.70578 -0.75813,-0.94765 -1.51625,-1.8953 -0.75812,-0.94765 -0.75812,-1.13718 0,-0.56859 -0.37906,-2.08484 -0.18953,-1.51624 -0.37906,-3.03248 -0.18953,-1.51625 -0.37906,-2.84296 -0.18953,-1.32671 -0.18953,-1.8953 0,-1.51624 0.18953,-2.65343 0.18953,-1.13718 1.13718,-2.27436 0.94765,-2.08483 2.4639,-3.22202 1.51624,-1.13718 2.84295,-2.08483 6.82309,-4.3592 12.69853,-8.52887 6.06498,-4.16966 11.56136,-8.52886 5.49638,-4.3592 10.80323,-9.09746 5.49638,-4.92779 11.18229,-10.80323 0.75812,-0.75812 1.70577,-1.70577 1.13718,-1.13718 2.46389,-2.08484 1.32672,-0.94765 2.4639,-1.51624 1.32671,-0.75812 2.46389,-0.75812 0.56859,0 1.70578,0.37906 1.32671,0.18953 3.03248,1.13718 2.27437,0.94765 4.54873,2.27437 2.27436,1.32671 4.3592,2.84295 2.08483,1.13718 3.79061,3.41155 h -4.73826 q 0.94765,0 2.27436,0.18953 1.51624,0.18953 3.03249,0.56859 0.56859,1.13718 0.56859,2.08483 0,0.18953 -0.18953,0.37906 0,0.18953 0,0.5686 l 4.92779,-1.51625 q 1.13718,0.37906 2.84295,1.13718 1.70577,0.5686 3.22202,1.51625 1.51624,0.75812 2.65342,2.08483 1.13718,1.13718 1.13718,2.84296 0,0.18953 -0.18953,0.37906 0,0.18953 0,0.56859 z m -56.48005,10.99276 q 1.32672,0.18953 2.4639,0.37906 1.32671,0 2.46389,0.18953 0.37906,0 0.75812,0.18953 0.37906,0.18953 0.75812,0.18953 0.37907,0 0.5686,-0.18953 0.37906,-0.18953 0.75812,-0.18953 0.37906,0 0.56859,0.18953 0.37906,0.18953 0.75812,0.18953 h 1.13718 q 0.75812,0 1.13718,0.18953 0.56859,0.18954 1.32672,0.18954 1.13718,0 2.27436,0 1.13718,-0.18954 2.27436,-0.37907 0.37907,-1.13718 0.5686,-1.8953 2.08483,-4.54873 3.98013,-9.09746 2.08484,-4.73825 3.98014,-9.47651 -0.37906,0.18953 -0.94765,0.75812 -1.51624,0.94765 -3.03249,1.8953 -1.32671,0.75812 -2.84295,1.70577 -3.60108,2.27437 -6.82309,4.92779 -3.03249,2.65343 -6.63357,4.92779 -0.94765,0.37906 -1.51624,0.94765 -0.37906,0.37907 -1.32671,0.75813 -0.94765,0.94765 -2.4639,1.8953 -0.75812,0.37906 -1.32671,0.75812 -0.56859,0.37906 -1.32671,0.75812 0.75812,0 1.32671,0.18953 0.56859,0 1.13718,0 z"
         inkscape:connector-curvature="0" />
    </g>
    <g
       aria-label="No encontre lo que buscabas"
       style="font-style:normal;font-variant:normal;font-weight:normal;font-stretch:normal;font-size:25.48046875px;line-height:1.25;font-family:Brieston;-inkscape-font-specification:'Brieston, Normal';font-variant-ligatures:normal;font-variant-caps:normal;font-variant-numeric:normal;font-feature-settings:normal;text-align:start;letter-spacing:0px;word-spacing:0px;writing-mode:lr-tb;text-anchor:start;fill:#fae1e7;fill-opacity:1;stroke:#000000;stroke-width:0.34789425;stroke-miterlimit:4;stroke-dasharray:none"
       id="text1603"
       transform="matrix(0.8757306,0,0,0.8757306,533.25977,-269.68618)">
      <path
         d="m -580.79308,460.60711 0.1274,0.22933 -0.1274,0.22932 q -0.38221,0.58605 -0.56057,1.1721 -0.15288,0.43317 -0.25481,0.89182 -0.0764,0.45865 -0.20384,0.89181 -0.1274,0.48413 -0.28028,0.96826 -0.15289,0.48413 -0.30577,0.96826 -0.0255,0.0255 -0.051,0.15288 -0.0255,0.10192 -0.0764,0.22933 -0.0255,0.15288 -0.0764,0.22932 0,0.17836 0,0.33125 0.0255,0.15288 0.0255,0.30576 0,0.30577 -0.12741,0.53509 -0.10192,0.20385 -0.30576,0.40769 -0.30577,1.24854 -0.63701,2.49709 -0.33125,1.22306 -0.61153,2.4716 -0.0765,0.35673 -0.17837,0.71345 -0.0764,0.33125 -0.1274,0.68798 -0.0764,0.35672 -0.1274,0.68797 -0.051,0.30577 -0.051,0.66249 0,0.28029 0.0764,0.38221 0.0764,0.1274 0.35672,0.30576 l 0.28029,0.15289 v 0.30576 q 0,0.30577 -0.20384,0.50961 -0.17837,0.20385 -0.45865,0.33125 -0.25481,0.15288 -0.53509,0.20384 -0.25481,0.051 -0.40769,0.051 -0.53509,0 -0.94278,-0.22932 -0.3822,-0.20384 -0.66249,-0.56057 -0.2548,-0.33125 -0.40769,-0.7899 -0.1274,-0.43316 -0.1274,-0.91729 0,-0.43317 0.051,-0.84086 0.0764,-0.43317 0.17836,-0.86633 0.28029,-1.19759 0.53509,-2.34421 0.25481,-1.1721 -0.0764,-1.65623 -0.33124,-0.50961 -0.53509,-1.80911 -0.20384,-1.2995 -1.52882,-2.52257 -0.9173,4.63745 -1.12115,5.63119 -0.17836,0.99373 -0.58605,2.01295 -0.10192,0.25481 -0.15288,0.40769 -0.051,0.15288 -0.10192,0.28029 -0.0255,0.1274 -0.051,0.30576 0,0.15288 -0.051,0.40769 -0.0764,0.38221 -0.25481,0.71345 -0.15288,0.33125 -0.63701,0.33125 -0.48413,0 -0.86634,-0.20385 -0.3822,-0.20384 -0.63701,-0.5096 -0.22932,-0.30577 -0.35672,-0.63702 -0.12741,-0.33124 -0.12741,-0.56057 0,-0.22932 0.051,-0.43316 0.051,-0.22933 0.10192,-0.43317 0.051,-0.20385 0.10192,-0.38221 0.0764,-0.17836 0.1274,-0.35673 0.20385,-0.78989 0.43317,-1.5543 0.2548,-0.76442 1.19758,-4.58649 0.1274,-0.56057 0.20385,-1.09566 0.0764,-0.56057 0.15288,-1.12114 0.0255,-0.22932 0.0764,-0.45865 0.051,-0.2548 0.10192,-0.50961 0.051,-0.20384 0.0764,-0.43317 0.0255,-0.22932 0.0255,-0.43316 0,-0.28029 0.15289,-0.43317 0.17836,-0.15288 0.40768,-0.22933 0.22933,-0.0764 0.48413,-0.0764 0.28029,-0.0255 0.45865,-0.0255 0.35673,0 0.81538,0.0255 0.45864,0.0255 0.81537,0.15289 0.15288,0.051 0.38221,0.2548 0.2548,0.17836 0.20384,0.53509 l -0.0255,0.0255 q 0.051,0.15288 0.051,0.17836 0,0.22933 1.86008,4.10236 l 0.3822,-1.75815 q 0.0764,-0.33125 0.20385,-1.22307 0.15288,-0.89181 0.3822,-1.86007 0.10193,-0.38221 0.22933,-0.86634 0.15288,-0.50961 0.38221,-0.96825 0.22932,-0.45865 0.58605,-0.76442 0.35672,-0.30576 0.84085,-0.30576 0.38221,0 0.68797,0.17836 0.30577,0.17836 0.53509,0.45865 0.25481,0.28028 0.45865,0.61153 0.20385,0.33125 0.35673,0.63701 z"
         style="font-style:normal;font-variant:normal;font-weight:normal;font-stretch:normal;font-size:25.48046875px;font-family:Brieston;-inkscape-font-specification:'Brieston, Normal';font-variant-ligatures:normal;font-variant-caps:normal;font-variant-numeric:normal;font-feature-settings:normal;text-align:start;writing-mode:lr-tb;text-anchor:start;fill:#fae1e7;fill-opacity:1;stroke:#000000;stroke-width:0.34789425;stroke-miterlimit:4;stroke-dasharray:none"
         id="path1605"
         inkscape:connector-curvature="0" />
      <path
         d="m -570.68928,466.59502 q 0,0.84086 -0.20384,1.8346 -0.17837,0.99373 -0.56057,1.98747 -0.35673,0.99374 -0.89182,1.91104 -0.53509,0.91729 -1.24854,1.63075 -0.68798,0.71345 -1.55431,1.14662 -0.86634,0.43317 -1.86008,0.43317 -1.14662,0 -1.91103,-0.43317 -0.76441,-0.43317 -1.22306,-1.07018 -0.43317,-0.66249 -0.61153,-1.37595 -0.17837,-0.73893 -0.17837,-1.35046 0,-1.1721 0.17837,-2.26776 0.20384,-1.12114 0.66249,-2.24228 -0.1274,-0.28029 -0.25481,-0.73894 -0.10192,-0.48413 -0.10192,-0.78989 0,-0.6625 0.35673,-1.50335 0.35672,-0.84086 0.99374,-1.55431 0.63701,-0.73893 1.52882,-1.22306 0.9173,-0.50961 1.98748,-0.50961 1.27402,0 2.19132,0.53509 0.94278,0.53509 1.52883,1.42691 0.61153,0.86633 0.89182,1.96199 0.28028,1.07018 0.28028,2.19132 z m -6.7778,5.07061 q 0,0.10193 0.0255,0.30577 0.0255,0.17836 0.0764,0.38221 0.0764,0.17836 0.15288,0.33124 0.10192,0.12741 0.25481,0.12741 0.1274,0 0.35672,-0.15289 0.43317,-0.28028 0.81538,-0.68797 0.3822,-0.43317 0.68797,-0.9173 0.30577,-0.50961 0.50961,-1.0447 0.22932,-0.53509 0.38221,-1.01921 -0.61153,0.20384 -1.27403,0.20384 -0.81537,0 -1.65623,-0.22932 -0.20384,0.68797 -0.28028,1.2995 -0.051,0.58605 -0.051,1.40142 z m 3.61822,-4.76484 q 0.0255,-0.17837 0.0255,-0.33125 0,-0.17836 0,-0.35673 0,-0.1274 0,-0.28028 0,-0.15288 -0.0255,-0.28029 -0.0255,-0.2548 -0.15288,-0.68797 -0.1274,-0.45865 -0.35673,-0.89181 -0.20384,-0.45865 -0.50961,-0.76442 -0.28028,-0.33125 -0.58605,-0.33125 -0.20384,0 -0.43316,0.12741 -0.20385,0.10192 -0.40769,0.28028 0.48413,0.1274 0.71345,0.35673 0.35673,0.15288 0.63701,0.35673 0.30577,0.20384 0.30577,0.68797 0,0.17836 -0.10192,0.40769 -0.0764,0.20384 -0.28029,0.35672 l -0.10192,0.10192 q -0.10192,0.15289 -0.15288,0.25481 -0.15289,0.20384 -0.33125,0.43317 -0.15288,0.20384 -0.33125,0.40768 0.43317,0.12741 0.89182,0.15289 0.45865,0 0.89182,0 h 0.22932 z"
         style="font-style:normal;font-variant:normal;font-weight:normal;font-stretch:normal;font-size:25.48046875px;font-family:Brieston;-inkscape-font-specification:'Brieston, Normal';font-variant-ligatures:normal;font-variant-caps:normal;font-variant-numeric:normal;font-feature-settings:normal;text-align:start;writing-mode:lr-tb;text-anchor:start;fill:#fae1e7;fill-opacity:1;stroke:#000000;stroke-width:0.34789425;stroke-miterlimit:4;stroke-dasharray:none"
         id="path1607"
         inkscape:connector-curvature="0" />
      <path
         d="m -550.56648,468.09837 q -0.35672,0.0764 -0.71345,0.15288 -0.33125,0.051 -0.68797,0.10192 -1.07018,0.20385 -2.14036,0.38221 -1.0447,0.17836 -2.11488,0.35673 -0.17836,0.3822 -0.38221,0.96826 -0.20384,0.58605 -0.40769,1.24854 -0.17836,0.63701 -0.33124,1.24854 -0.1274,0.58605 -0.1274,1.01922 0.051,0.051 0.051,0.051 h 0.0764 q 0.051,0.0255 0.1274,0.0255 0.1274,0 0.17836,0.0255 0.0764,0 0.15289,0.0255 0.0764,0 0.1274,0 0.33125,0.10192 0.81537,0.10192 0.58606,0 1.27403,-0.0764 0.71345,-0.10192 1.40142,-0.30576 0.71346,-0.20385 1.32499,-0.53509 0.61153,-0.35673 0.96826,-0.86634 0.051,-0.051 0.10192,-0.15288 0.1274,-0.20385 0.33124,-0.30577 0.22933,-0.10192 0.40769,-0.10192 0.58605,0 0.96826,0.48413 0.40769,0.48413 0.40769,1.0447 0,0.28028 -0.12741,0.53509 -0.35672,0.76441 -1.19758,1.2995 -0.81537,0.53509 -1.80911,0.86634 -0.99374,0.33124 -2.01296,0.48413 -0.99374,0.15288 -1.73267,0.15288 -0.71345,0 -1.57979,-0.10192 -0.86634,-0.0764 -1.63075,-0.35673 -0.73893,-0.28028 -1.24854,-0.81537 -0.50961,-0.56057 -0.50961,-1.47787 0,-0.58605 0.10192,-1.27402 0.1274,-0.68798 0.30577,-1.37595 0.17836,-0.71345 0.3822,-1.40142 0.22933,-0.68798 0.43317,-1.24855 0,-0.22932 -0.0255,-0.48413 0,-0.28028 0,-0.50961 0,-0.3822 0.20384,-0.71345 0.20385,-0.33125 0.58606,-0.38221 0.15288,-0.3822 0.30576,-0.76441 0.17836,-0.40769 0.35673,-0.81538 0.22932,-0.53508 0.53509,-1.07017 0.3822,-1.50335 1.14662,-2.24229 0.78989,-0.73893 0.94278,-0.73893 0.61153,0 1.22306,0.0764 0.61153,0.051 1.24854,0.051 0.40769,0 0.7899,0 0.40768,-0.0255 0.84085,-0.0255 h 0.45865 0.61153 q 0.38221,0 0.76441,-0.051 0.38221,-0.051 0.7899,-0.051 0.20384,0 0.30576,0.0255 0.40769,0.0255 0.7899,0.051 0.40769,0.0255 0.81537,0.0764 0.10193,0.0255 0.25481,0.0255 0.28028,0.051 0.50961,0.20385 0.2548,0.1274 0.2548,0.43317 0,0.28028 -0.20384,0.5096 -0.17836,0.22933 -0.30577,0.30577 -0.10192,0.0764 -0.2548,0.20384 -0.1274,0.10193 -0.28029,0.22933 -0.48412,0.35672 -0.91729,0.43317 -0.43317,0.0764 -1.01922,0.0764 -0.30577,0 -0.61153,0.0255 -0.30577,0 -0.43317,0 l -3.43986,0.15288 q 0,0.10192 -0.12741,0.28029 -0.1274,0.33124 -0.30576,0.61153 -0.15288,0.2548 -0.38221,0.53509 -0.30576,0.35672 -0.56057,0.71345 -0.22932,0.35673 -0.43317,0.78989 0.0764,-0.0255 0.15289,-0.0255 0.0764,0 0.15288,-0.0255 0.22932,-0.051 0.43317,-0.0764 0.22932,-0.0255 0.43316,-0.051 0.051,-0.0255 0.15289,-0.051 0.1274,-0.0255 0.35672,-0.0255 0.10193,-0.0255 0.17837,-0.0255 0.10192,-0.0255 0.22932,-0.0255 0.17836,0 0.56057,-0.0764 0.22933,-0.051 0.43317,-0.10192 0.22932,-0.051 0.45865,-0.0764 0.10192,-0.0255 0.20384,-0.0255 0.1274,0 0.25481,-0.051 0.20384,-0.051 0.22932,-0.0764 0.43317,-0.1274 0.68797,-0.1274 0.43317,0 0.61153,0.2548 0.20385,0.22933 0.20385,0.61154 0,0.73893 -0.25481,1.19758 -0.2548,0.45865 -1.09566,0.63701 z"
         style="font-style:normal;font-variant:normal;font-weight:normal;font-stretch:normal;font-size:25.48046875px;font-family:Brieston;-inkscape-font-specification:'Brieston, Normal';font-variant-ligatures:normal;font-variant-caps:normal;font-variant-numeric:normal;font-feature-settings:normal;text-align:start;writing-mode:lr-tb;text-anchor:start;fill:#fae1e7;fill-opacity:1;stroke:#000000;stroke-width:0.34789425;stroke-miterlimit:4;stroke-dasharray:none"
         id="path1609"
         inkscape:connector-curvature="0" />
      <path
         d="m -534.75903,460.60711 0.1274,0.22933 -0.1274,0.22932 q -0.38221,0.58605 -0.56057,1.1721 -0.15288,0.43317 -0.25481,0.89182 -0.0764,0.45865 -0.20384,0.89181 -0.1274,0.48413 -0.28028,0.96826 -0.15289,0.48413 -0.30577,0.96826 -0.0255,0.0255 -0.051,0.15288 -0.0255,0.10192 -0.0764,0.22933 -0.0255,0.15288 -0.0764,0.22932 0,0.17836 0,0.33125 0.0255,0.15288 0.0255,0.30576 0,0.30577 -0.12741,0.53509 -0.10192,0.20385 -0.30576,0.40769 -0.30577,1.24854 -0.63701,2.49709 -0.33125,1.22306 -0.61153,2.4716 -0.0765,0.35673 -0.17837,0.71345 -0.0764,0.33125 -0.1274,0.68798 -0.0764,0.35672 -0.1274,0.68797 -0.051,0.30577 -0.051,0.66249 0,0.28029 0.0764,0.38221 0.0764,0.1274 0.35672,0.30576 l 0.28029,0.15289 v 0.30576 q 0,0.30577 -0.20384,0.50961 -0.17837,0.20385 -0.45865,0.33125 -0.25481,0.15288 -0.53509,0.20384 -0.25481,0.051 -0.40769,0.051 -0.53509,0 -0.94278,-0.22932 -0.3822,-0.20384 -0.66249,-0.56057 -0.2548,-0.33125 -0.40769,-0.7899 -0.1274,-0.43316 -0.1274,-0.91729 0,-0.43317 0.051,-0.84086 0.0764,-0.43317 0.17836,-0.86633 0.28029,-1.19759 0.53509,-2.34421 0.25481,-1.1721 -0.0764,-1.65623 -0.33124,-0.50961 -0.53509,-1.80911 -0.20384,-1.2995 -1.52882,-2.52257 -0.9173,4.63745 -1.12115,5.63119 -0.17836,0.99373 -0.58605,2.01295 -0.10192,0.25481 -0.15288,0.40769 -0.051,0.15288 -0.10192,0.28029 -0.0255,0.1274 -0.051,0.30576 0,0.15288 -0.051,0.40769 -0.0764,0.38221 -0.25481,0.71345 -0.15288,0.33125 -0.63701,0.33125 -0.48413,0 -0.86634,-0.20385 -0.3822,-0.20384 -0.63701,-0.5096 -0.22932,-0.30577 -0.35672,-0.63702 -0.12741,-0.33124 -0.12741,-0.56057 0,-0.22932 0.051,-0.43316 0.051,-0.22933 0.10192,-0.43317 0.051,-0.20385 0.10192,-0.38221 0.0764,-0.17836 0.1274,-0.35673 0.20385,-0.78989 0.43317,-1.5543 0.2548,-0.76442 1.19758,-4.58649 0.1274,-0.56057 0.20385,-1.09566 0.0764,-0.56057 0.15288,-1.12114 0.0255,-0.22932 0.0764,-0.45865 0.051,-0.2548 0.10192,-0.50961 0.051,-0.20384 0.0764,-0.43317 0.0255,-0.22932 0.0255,-0.43316 0,-0.28029 0.15289,-0.43317 0.17836,-0.15288 0.40768,-0.22933 0.22933,-0.0764 0.48413,-0.0764 0.28029,-0.0255 0.45865,-0.0255 0.35673,0 0.81538,0.0255 0.45864,0.0255 0.81537,0.15289 0.15288,0.051 0.38221,0.2548 0.2548,0.17836 0.20384,0.53509 l -0.0255,0.0255 q 0.051,0.15288 0.051,0.17836 0,0.22933 1.86008,4.10236 l 0.3822,-1.75815 q 0.0764,-0.33125 0.20385,-1.22307 0.15288,-0.89181 0.3822,-1.86007 0.10193,-0.38221 0.22933,-0.86634 0.15288,-0.50961 0.38221,-0.96825 0.22932,-0.45865 0.58605,-0.76442 0.35672,-0.30576 0.84085,-0.30576 0.38221,0 0.68797,0.17836 0.30577,0.17836 0.53509,0.45865 0.25481,0.28028 0.45865,0.61153 0.20385,0.33125 0.35673,0.63701 z"
         style="font-style:normal;font-variant:normal;font-weight:normal;font-stretch:normal;font-size:25.48046875px;font-family:Brieston;-inkscape-font-specification:'Brieston, Normal';font-variant-ligatures:normal;font-variant-caps:normal;font-variant-numeric:normal;font-feature-settings:normal;text-align:start;writing-mode:lr-tb;text-anchor:start;fill:#fae1e7;fill-opacity:1;stroke:#000000;stroke-width:0.34789425;stroke-miterlimit:4;stroke-dasharray:none"
         id="path1611"
         inkscape:connector-curvature="0" />
      <path
         d="m -524.40042,472.99062 q 0,0.1274 -0.0255,0.22932 0,0.0764 -0.0255,0.20385 -0.22932,0.84085 -0.81537,1.47786 -0.56057,0.63702 -1.35047,1.09566 -0.78989,0.43317 -1.73267,0.63702 -0.91729,0.22932 -1.86007,0.22932 -0.68797,0 -1.35047,-0.20384 -0.63701,-0.17837 -1.19758,-0.48413 -0.71345,-0.38221 -1.1721,-0.89182 -0.43317,-0.53509 -0.68797,-1.09566 -0.22933,-0.58605 -0.33125,-1.19758 -0.0764,-0.61153 -0.0764,-1.1721 0,-2.39517 0.78989,-4.61197 0.7899,-2.2168 2.11488,-4.28072 0.35673,-0.53509 0.76442,-1.07018 0.40769,-0.53509 0.96826,-0.94277 0.56057,-0.43317 1.2995,-0.68798 0.73893,-0.28028 1.75815,-0.28028 1.55431,0 2.47161,0.84085 0.91729,0.81538 0.91729,1.98748 0,0.20384 -0.0255,0.40769 -0.0255,0.20384 -0.0764,0.40769 -0.051,0.17836 -0.0764,0.35672 -0.0255,0.17837 -0.0764,0.35673 -0.051,0.1274 -0.051,0.2548 0.0255,0.10193 0,0.22933 -0.17836,0.56057 -0.9173,0.71345 -0.0764,0 -0.28028,0.051 -0.25481,0.051 -0.48413,0.051 -0.051,0 -0.10192,0 -0.051,-0.0255 -0.10193,-0.0255 -0.2548,0.051 -0.3822,0.051 -0.15289,0 -0.40769,-0.0255 -0.22932,-0.051 -0.48413,-0.15288 -0.22932,-0.1274 -0.40769,-0.30577 -0.15288,-0.20384 -0.15288,-0.53509 0,-0.0764 0.0255,-0.1274 0.0255,-0.051 0.0255,-0.1274 0,-0.40769 0.051,-0.76441 0.051,-0.38221 0.17837,-0.76442 -0.38221,0.10192 -0.71346,0.45865 -0.33124,0.33125 -0.53509,0.63701 -0.81537,1.12114 -1.50335,2.29324 -0.66249,1.17211 -1.01921,2.52257 -0.0764,0.25481 -0.15289,0.61153 -0.0764,0.33125 -0.15288,0.68797 -0.051,0.35673 -0.10192,0.71346 -0.051,0.33124 -0.051,0.56057 v 0.89181 q 0,0.89182 0.40768,1.50335 0.40769,0.61153 1.42691,0.61153 1.0447,0 1.86008,-0.45864 0.81537,-0.48413 1.27402,-1.40143 0.0255,-0.051 0.0764,-0.17836 0.051,-0.12741 0.1274,-0.25481 0.1274,-0.28028 0.33125,-0.45865 0.20384,-0.20384 0.53509,-0.20384 0.33124,0 0.58605,0.10192 0.28028,0.0764 0.48413,0.38221 0.1274,0.20384 0.2548,0.50961 0.15289,0.28028 0.15289,0.63701 z"
         style="font-style:normal;font-variant:normal;font-weight:normal;font-stretch:normal;font-size:25.48046875px;font-family:Brieston;-inkscape-font-specification:'Brieston, Normal';font-variant-ligatures:normal;font-variant-caps:normal;font-variant-numeric:normal;font-feature-settings:normal;text-align:start;writing-mode:lr-tb;text-anchor:start;fill:#fae1e7;fill-opacity:1;stroke:#000000;stroke-width:0.34789425;stroke-miterlimit:4;stroke-dasharray:none"
         id="path1613"
         inkscape:connector-curvature="0" />
      <path
         d="m -513.50752,466.59502 q 0,0.84086 -0.20385,1.8346 -0.17836,0.99373 -0.56057,1.98747 -0.35672,0.99374 -0.89181,1.91104 -0.53509,0.91729 -1.24855,1.63075 -0.68797,0.71345 -1.55431,1.14662 -0.86633,0.43317 -1.86007,0.43317 -1.14662,0 -1.91104,-0.43317 -0.76441,-0.43317 -1.22306,-1.07018 -0.43317,-0.66249 -0.61153,-1.37595 -0.17836,-0.73893 -0.17836,-1.35046 0,-1.1721 0.17836,-2.26776 0.20384,-1.12114 0.66249,-2.24228 -0.1274,-0.28029 -0.2548,-0.73894 -0.10192,-0.48413 -0.10192,-0.78989 0,-0.6625 0.35672,-1.50335 0.35673,-0.84086 0.99374,-1.55431 0.63701,-0.73893 1.52883,-1.22306 0.9173,-0.50961 1.98748,-0.50961 1.27402,0 2.19132,0.53509 0.94277,0.53509 1.52882,1.42691 0.61154,0.86633 0.89182,1.96199 0.28029,1.07018 0.28029,2.19132 z m -6.77781,5.07061 q 0,0.10193 0.0255,0.30577 0.0255,0.17836 0.0764,0.38221 0.0764,0.17836 0.15289,0.33124 0.10192,0.12741 0.2548,0.12741 0.1274,0 0.35673,-0.15289 0.43317,-0.28028 0.81537,-0.68797 0.38221,-0.43317 0.68798,-0.9173 0.30576,-0.50961 0.5096,-1.0447 0.22933,-0.53509 0.38221,-1.01921 -0.61153,0.20384 -1.27402,0.20384 -0.81538,0 -1.65623,-0.22932 -0.20385,0.68797 -0.28029,1.2995 -0.051,0.58605 -0.051,1.40142 z m 3.61823,-4.76484 q 0.0255,-0.17837 0.0255,-0.33125 0,-0.17836 0,-0.35673 0,-0.1274 0,-0.28028 0,-0.15288 -0.0255,-0.28029 -0.0255,-0.2548 -0.15288,-0.68797 -0.12741,-0.45865 -0.35673,-0.89181 -0.20385,-0.45865 -0.50961,-0.76442 -0.28029,-0.33125 -0.58605,-0.33125 -0.20385,0 -0.43317,0.12741 -0.20384,0.10192 -0.40769,0.28028 0.48413,0.1274 0.71346,0.35673 0.35672,0.15288 0.63701,0.35673 0.30576,0.20384 0.30576,0.68797 0,0.17836 -0.10192,0.40769 -0.0764,0.20384 -0.28028,0.35672 l -0.10193,0.10192 q -0.10192,0.15289 -0.15288,0.25481 -0.15288,0.20384 -0.33124,0.43317 -0.15289,0.20384 -0.33125,0.40768 0.43317,0.12741 0.89182,0.15289 0.45864,0 0.89181,0 h 0.22933 z"
         style="font-style:normal;font-variant:normal;font-weight:normal;font-stretch:normal;font-size:25.48046875px;font-family:Brieston;-inkscape-font-specification:'Brieston, Normal';font-variant-ligatures:normal;font-variant-caps:normal;font-variant-numeric:normal;font-feature-settings:normal;text-align:start;writing-mode:lr-tb;text-anchor:start;fill:#fae1e7;fill-opacity:1;stroke:#000000;stroke-width:0.34789425;stroke-miterlimit:4;stroke-dasharray:none"
         id="path1615"
         inkscape:connector-curvature="0" />
      <path
         d="m -500.12152,460.60711 0.1274,0.22933 -0.1274,0.22932 q -0.38221,0.58605 -0.56057,1.1721 -0.15288,0.43317 -0.2548,0.89182 -0.0765,0.45865 -0.20385,0.89181 -0.1274,0.48413 -0.28028,0.96826 -0.15289,0.48413 -0.30577,0.96826 -0.0255,0.0255 -0.051,0.15288 -0.0255,0.10192 -0.0764,0.22933 -0.0255,0.15288 -0.0764,0.22932 0,0.17836 0,0.33125 0.0255,0.15288 0.0255,0.30576 0,0.30577 -0.1274,0.53509 -0.10193,0.20385 -0.30577,0.40769 -0.30577,1.24854 -0.63701,2.49709 -0.33125,1.22306 -0.61153,2.4716 -0.0764,0.35673 -0.17837,0.71345 -0.0764,0.33125 -0.1274,0.68798 -0.0764,0.35672 -0.1274,0.68797 -0.051,0.30577 -0.051,0.66249 0,0.28029 0.0764,0.38221 0.0764,0.1274 0.35673,0.30576 l 0.28028,0.15289 v 0.30576 q 0,0.30577 -0.20384,0.50961 -0.17837,0.20385 -0.45865,0.33125 -0.25481,0.15288 -0.53509,0.20384 -0.25481,0.051 -0.40769,0.051 -0.53509,0 -0.94278,-0.22932 -0.3822,-0.20384 -0.66249,-0.56057 -0.2548,-0.33125 -0.40768,-0.7899 -0.12741,-0.43316 -0.12741,-0.91729 0,-0.43317 0.051,-0.84086 0.0765,-0.43317 0.17837,-0.86633 0.28028,-1.19759 0.53509,-2.34421 0.2548,-1.1721 -0.0764,-1.65623 -0.33125,-0.50961 -0.53509,-1.80911 -0.20385,-1.2995 -1.52883,-2.52257 -0.9173,4.63745 -1.12114,5.63119 -0.17837,0.99373 -0.58605,2.01295 -0.10193,0.25481 -0.15289,0.40769 -0.051,0.15288 -0.10192,0.28029 -0.0255,0.1274 -0.051,0.30576 0,0.15288 -0.051,0.40769 -0.0764,0.38221 -0.25481,0.71345 -0.15288,0.33125 -0.63701,0.33125 -0.48413,0 -0.86633,-0.20385 -0.38221,-0.20384 -0.63701,-0.5096 -0.22933,-0.30577 -0.35673,-0.63702 -0.1274,-0.33124 -0.1274,-0.56057 0,-0.22932 0.051,-0.43316 0.051,-0.22933 0.10192,-0.43317 0.051,-0.20385 0.10192,-0.38221 0.0764,-0.17836 0.1274,-0.35673 0.20385,-0.78989 0.43317,-1.5543 0.25481,-0.76442 1.19758,-4.58649 0.12741,-0.56057 0.20385,-1.09566 0.0764,-0.56057 0.15288,-1.12114 0.0255,-0.22932 0.0764,-0.45865 0.051,-0.2548 0.10192,-0.50961 0.051,-0.20384 0.0764,-0.43317 0.0255,-0.22932 0.0255,-0.43316 0,-0.28029 0.15288,-0.43317 0.17836,-0.15288 0.40769,-0.22933 0.22932,-0.0764 0.48412,-0.0764 0.28029,-0.0255 0.45865,-0.0255 0.35673,0 0.81538,0.0255 0.45865,0.0255 0.81537,0.15289 0.15289,0.051 0.38221,0.2548 0.2548,0.17836 0.20384,0.53509 l -0.0255,0.0255 q 0.051,0.15288 0.051,0.17836 0,0.22933 1.86008,4.10236 l 0.38221,-1.75815 q 0.0764,-0.33125 0.20384,-1.22307 0.15288,-0.89181 0.38221,-1.86007 0.10192,-0.38221 0.22932,-0.86634 0.15288,-0.50961 0.38221,-0.96825 0.22932,-0.45865 0.58605,-0.76442 0.35672,-0.30576 0.84085,-0.30576 0.38221,0 0.68798,0.17836 0.30576,0.17836 0.53509,0.45865 0.2548,0.28028 0.45864,0.61153 0.20385,0.33125 0.35673,0.63701 z"
         style="font-style:normal;font-variant:normal;font-weight:normal;font-stretch:normal;font-size:25.48046875px;font-family:Brieston;-inkscape-font-specification:'Brieston, Normal';font-variant-ligatures:normal;font-variant-caps:normal;font-variant-numeric:normal;font-feature-settings:normal;text-align:start;writing-mode:lr-tb;text-anchor:start;fill:#fae1e7;fill-opacity:1;stroke:#000000;stroke-width:0.34789425;stroke-miterlimit:4;stroke-dasharray:none"
         id="path1617"
         inkscape:connector-curvature="0" />
      <path
         d="m -496.59168,474.44301 q -0.1274,0.2548 -0.48413,0.63701 -0.33124,0.35672 -1.09566,0.35672 -0.58605,0 -1.07018,-0.40768 -0.48413,-0.40769 -0.66249,-0.94278 -0.10192,-0.33125 -0.1274,-0.63701 0,-0.33125 0,-0.61153 0,-0.28029 0.0764,-0.81538 0.10192,-0.53509 0.15288,-0.86633 0.33125,-2.11488 0.9173,-4.10236 0.61153,-1.98748 1.35046,-3.97495 -0.30576,0 -0.61153,0.0255 -0.28028,0 -0.56057,0 -0.15288,0 -0.30576,-0.0255 -0.15289,-0.0255 -0.28029,-0.0255 -0.71345,0 -0.89181,-0.40769 -0.15289,-0.43317 -0.15289,-1.01922 0,-0.1274 -0.0255,-0.2548 -0.0255,-0.15289 -0.0255,-0.28029 0,-0.38221 0.20385,-0.73893 0.20384,-0.35673 0.66249,-0.35673 l 0.051,0.0255 q 0.051,0 0.1274,-0.0255 0.0764,-0.051 0.17836,-0.051 0.22933,0 0.40769,0.051 0.17837,0.051 0.28029,0.10192 0.15288,0.0764 0.3822,0.0764 0.10193,0.0255 0.20385,0.0255 0.10192,0 0.22932,0 h 0.15289 q 0.53509,0 1.07018,0.0765 0.56057,0.0764 1.12114,0.1274 0.1274,0.0255 0.28028,0.0255 0.15288,0 0.30577,0 h 0.63701 q 0.2548,0 0.48413,0.0255 0.22932,0.0255 0.45865,0.0255 h 0.40768 0.25481 q 0.1274,0 0.2548,0.0255 0.15289,0.0255 0.28029,0.0255 0.28028,0 0.50961,-0.0255 0.2548,-0.0255 0.53509,-0.0255 0.22932,0 0.78989,0.0255 0.56057,0.0255 1.12114,0.1274 0.58605,0.0764 1.01922,0.28029 0.45865,0.20384 0.45865,0.56057 0,0.30576 -0.25481,0.50961 -0.22932,0.20384 -0.48412,0.33124 -0.051,0.0255 -0.10193,0.051 -0.051,0 -0.10192,0.051 -0.15288,0.12741 -0.35672,0.22933 -0.20385,0.10192 -0.38221,0.17836 -0.25481,0.1274 -0.45865,0.17837 -0.20384,0.0255 -0.48413,0.0255 h -0.50961 -1.14662 q -0.50961,0 -1.01922,0 -0.48413,0 -0.99374,0.0255 -0.20384,0.22932 -0.33124,0.63701 -0.12741,0.35672 -0.25481,0.66249 -0.22932,0.45865 -0.45865,0.94278 -0.22932,0.45865 -0.45864,0.94277 -0.28029,0.58606 -0.45865,1.19759 -0.15289,0.61153 -0.35673,1.19758 0,0.051 -0.051,0.20384 -0.0255,0.12741 -0.0764,0.28029 -0.0255,0.15288 -0.0764,0.30576 -0.0255,0.12741 -0.0255,0.15289 -0.0764,0.17836 -0.17837,0.71345 -0.10192,0.53509 -0.17836,1.1721 -0.0764,0.63701 -0.15288,1.22306 -0.051,0.58605 -0.0764,0.86634 h 0.15288 l 0.33124,0.40769 v 0.15288 q 0,0.051 -0.051,0.17836 -0.051,0.10192 -0.0764,0.15289 z"
         style="font-style:normal;font-variant:normal;font-weight:normal;font-stretch:normal;font-size:25.48046875px;font-family:Brieston;-inkscape-font-specification:'Brieston, Normal';font-variant-ligatures:normal;font-variant-caps:normal;font-variant-numeric:normal;font-feature-settings:normal;text-align:start;writing-mode:lr-tb;text-anchor:start;fill:#fae1e7;fill-opacity:1;stroke:#000000;stroke-width:0.34789425;stroke-miterlimit:4;stroke-dasharray:none"
         id="path1619"
         inkscape:connector-curvature="0" />
      <path
         d="m -479.96607,472.60841 q 0,0.0255 0.0764,0.0764 0.20385,0.20385 0.28029,0.30577 0.28028,0.33125 0.76441,0.78989 0.1274,0.12741 0.22932,0.22933 0.12741,0.10192 0.25481,0.22932 0.1274,0.1274 0.22932,0.25481 0.10193,0.1274 0.22933,0.2548 0.1274,0.15288 0.22932,0.33125 0.10192,0.15288 0.22933,0.30576 0.15288,0.17837 0.33124,0.33125 0.17837,0.15288 0.35673,0.33125 0.17836,0.15288 0.2548,0.30576 0.0764,0.15288 0.0764,0.20384 0,0.28029 -0.22933,0.43317 -0.20384,0.17837 -0.50961,0.25481 -0.30576,0.10192 -0.63701,0.1274 -0.33125,0.0255 -0.53509,0.0255 -0.73893,0 -1.19758,-0.33125 -0.45865,-0.33124 -0.71346,-0.63701 -1.22306,-1.45238 -2.72641,-2.72641 -1.47786,-1.27402 -3.15957,-2.14036 l -0.0764,0.15289 q 0,0.2548 -0.10193,0.43316 v 0.0255 q -0.0255,0 -0.0255,0.0765 -0.1274,0.33124 -0.2548,0.68797 -0.1274,0.33124 -0.17837,0.68797 -0.58605,3.33794 -1.96199,2.59901 -1.37595,-0.73893 -1.40143,-0.86634 -0.0255,-0.15288 -0.0255,-0.22932 0,-0.30577 0.0764,-0.61153 0.0255,-0.12741 0.051,-0.25481 0.0255,-0.15288 0.051,-0.28028 0.20384,-0.96826 0.48412,-1.93652 0.30577,-0.96826 0.56058,-1.93651 0.0255,-0.25481 0.0255,-0.50961 0.0255,-0.28029 0.0255,-0.53509 0,-0.33125 0.0764,-0.61153 0.10192,-0.30577 0.40768,-0.50961 0.0764,-0.43317 0.12741,-0.84086 0.051,-0.43317 0.051,-0.86634 v -1.5543 q 0,-0.051 -0.0255,-0.0765 0,-0.0255 0,-0.0764 0,-0.28028 0.20384,-0.43316 -0.20384,0.051 -0.35673,0.051 -0.17836,0 -0.40768,-0.10193 -0.20385,-0.1274 -0.40769,-0.28028 -0.20384,-0.17836 -0.35673,-0.35673 -0.15288,-0.20384 -0.22932,-0.3822 -0.051,-0.10193 -0.15288,-0.20385 -0.0765,-0.1274 -0.17837,-0.28028 -0.0764,-0.17837 -0.0764,-0.43317 0,-0.22933 0.1274,-0.45865 0.15289,-0.2548 0.50961,-0.38221 l 0.17837,-0.0764 h 0.051 q 0.22932,-0.1274 0.48413,-0.17836 0.2548,-0.0764 0.53509,-0.1274 0.20384,-0.051 0.35672,-0.051 0.17837,0 0.38221,-0.0255 0.89182,-0.0765 1.80911,-0.17837 0.94278,-0.1274 1.88556,-0.1274 0.63701,0 1.50335,0.0764 0.86633,0.0764 1.75815,0.30577 0.91729,0.20384 1.70719,0.56057 0.81537,0.33124 1.32498,0.86633 0.43317,0.45865 0.53509,0.96826 0.12741,0.50961 0.12741,0.96826 0,0.43317 -0.20385,0.94278 -0.20384,0.48412 -0.50961,0.96825 -0.30576,0.48413 -0.68797,0.89182 -0.38221,0.38221 -0.76441,0.63701 -0.86634,0.68797 -2.0894,1.22306 -1.22306,0.50961 -2.29324,0.7899 0.56057,0.40769 1.04469,0.81537 0.25481,0.20385 0.48413,0.43317 0.25481,0.20385 0.53509,0.40769 0.58605,0.45865 1.0447,0.9173 0.051,0.051 0.17837,0.1274 0.1274,0.0764 0.22932,0.20384 z m -3.56727,-9.22393 q -1.09566,0 -2.06391,0.17837 0.35672,0.0255 0.68797,0.20384 0.35673,0.15288 0.35673,0.58605 0.0255,0.051 0.0764,0.15288 0.051,0.0764 0.051,0.22933 0,0.17836 -0.051,0.35672 -0.0255,0.15289 -0.0764,0.28029 -0.051,0.1274 -0.0765,0.22932 -0.0255,0.10193 -0.051,0.22933 -0.051,0.35672 -0.0764,0.68797 0,0.33125 -0.0764,0.66249 0,0.10192 -0.051,0.20385 0.84086,-0.17837 1.65623,-0.45865 0.81538,-0.30577 1.45239,-0.71346 0.66249,-0.40768 1.12114,-0.91729 0.45865,-0.53509 0.56057,-1.14662 l 0.0255,-0.0764 q 0,-0.12741 -0.0764,-0.20385 -0.20385,-0.15288 -0.6625,-0.22932 -0.45864,-0.10192 -0.96825,-0.15289 -0.50961,-0.051 -0.99374,-0.0764 -0.48413,-0.0255 -0.76442,-0.0255 z"
         style="font-style:normal;font-variant:normal;font-weight:normal;font-stretch:normal;font-size:25.48046875px;font-family:Brieston;-inkscape-font-specification:'Brieston, Normal';font-variant-ligatures:normal;font-variant-caps:normal;font-variant-numeric:normal;font-feature-settings:normal;text-align:start;writing-mode:lr-tb;text-anchor:start;fill:#fae1e7;fill-opacity:1;stroke:#000000;stroke-width:0.34789425;stroke-miterlimit:4;stroke-dasharray:none"
         id="path1621"
         inkscape:connector-curvature="0" />
      <path
         d="m -466.70986,468.09837 q -0.35672,0.0764 -0.71345,0.15288 -0.33125,0.051 -0.68797,0.10192 -1.07018,0.20385 -2.14036,0.38221 -1.0447,0.17836 -2.11488,0.35673 -0.17836,0.3822 -0.38221,0.96826 -0.20384,0.58605 -0.40768,1.24854 -0.17837,0.63701 -0.33125,1.24854 -0.1274,0.58605 -0.1274,1.01922 0.051,0.051 0.051,0.051 h 0.0764 q 0.051,0.0255 0.1274,0.0255 0.1274,0 0.17836,0.0255 0.0764,0 0.15289,0.0255 0.0764,0 0.1274,0 0.33125,0.10192 0.81538,0.10192 0.58605,0 1.27402,-0.0764 0.71345,-0.10192 1.40142,-0.30576 0.71346,-0.20385 1.32499,-0.53509 0.61153,-0.35673 0.96826,-0.86634 0.051,-0.051 0.10192,-0.15288 0.1274,-0.20385 0.33124,-0.30577 0.22933,-0.10192 0.40769,-0.10192 0.58605,0 0.96826,0.48413 0.40769,0.48413 0.40769,1.0447 0,0.28028 -0.12741,0.53509 -0.35672,0.76441 -1.19758,1.2995 -0.81537,0.53509 -1.80911,0.86634 -0.99374,0.33124 -2.01296,0.48413 -0.99374,0.15288 -1.73267,0.15288 -0.71345,0 -1.57979,-0.10192 -0.86633,-0.0764 -1.63075,-0.35673 -0.73893,-0.28028 -1.24854,-0.81537 -0.50961,-0.56057 -0.50961,-1.47787 0,-0.58605 0.10192,-1.27402 0.1274,-0.68798 0.30577,-1.37595 0.17836,-0.71345 0.3822,-1.40142 0.22933,-0.68798 0.43317,-1.24855 0,-0.22932 -0.0255,-0.48413 0,-0.28028 0,-0.50961 0,-0.3822 0.20385,-0.71345 0.20384,-0.33125 0.58605,-0.38221 0.15288,-0.3822 0.30576,-0.76441 0.17836,-0.40769 0.35673,-0.81538 0.22932,-0.53508 0.53509,-1.07017 0.3822,-1.50335 1.14662,-2.24229 0.78989,-0.73893 0.94278,-0.73893 0.61153,0 1.22306,0.0764 0.61153,0.051 1.24854,0.051 0.40769,0 0.7899,0 0.40768,-0.0255 0.84085,-0.0255 h 0.45865 0.61153 q 0.38221,0 0.76442,-0.051 0.3822,-0.051 0.78989,-0.051 0.20384,0 0.30577,0.0255 0.40768,0.0255 0.78989,0.051 0.40769,0.0255 0.81538,0.0764 0.10192,0.0255 0.2548,0.0255 0.28029,0.051 0.50961,0.20385 0.2548,0.1274 0.2548,0.43317 0,0.28028 -0.20384,0.5096 -0.17836,0.22933 -0.30577,0.30577 -0.10192,0.0764 -0.2548,0.20384 -0.1274,0.10193 -0.28029,0.22933 -0.48412,0.35672 -0.91729,0.43317 -0.43317,0.0764 -1.01922,0.0764 -0.30577,0 -0.61153,0.0255 -0.30577,0 -0.43317,0 l -3.43986,0.15288 q 0,0.10192 -0.12741,0.28029 -0.1274,0.33124 -0.30576,0.61153 -0.15288,0.2548 -0.38221,0.53509 -0.30576,0.35672 -0.56057,0.71345 -0.22932,0.35673 -0.43317,0.78989 0.0764,-0.0255 0.15289,-0.0255 0.0764,0 0.15288,-0.0255 0.22932,-0.051 0.43317,-0.0764 0.22932,-0.0255 0.43316,-0.051 0.051,-0.0255 0.15289,-0.051 0.1274,-0.0255 0.35672,-0.0255 0.10193,-0.0255 0.17837,-0.0255 0.10192,-0.0255 0.22932,-0.0255 0.17837,0 0.56057,-0.0764 0.22933,-0.051 0.43317,-0.10192 0.22932,-0.051 0.45865,-0.0764 0.10192,-0.0255 0.20384,-0.0255 0.1274,0 0.25481,-0.051 0.20384,-0.051 0.22932,-0.0764 0.43317,-0.1274 0.68797,-0.1274 0.43317,0 0.61154,0.2548 0.20384,0.22933 0.20384,0.61154 0,0.73893 -0.25481,1.19758 -0.2548,0.45865 -1.09566,0.63701 z"
         style="font-style:normal;font-variant:normal;font-weight:normal;font-stretch:normal;font-size:25.48046875px;font-family:Brieston;-inkscape-font-specification:'Brieston, Normal';font-variant-ligatures:normal;font-variant-caps:normal;font-variant-numeric:normal;font-feature-settings:normal;text-align:start;writing-mode:lr-tb;text-anchor:start;fill:#fae1e7;fill-opacity:1;stroke:#000000;stroke-width:0.34789425;stroke-miterlimit:4;stroke-dasharray:none"
         id="path1623"
         inkscape:connector-curvature="0" />
      <path
         d="m -448.21702,464.25082 q -0.1274,0.61153 -0.2548,1.24854 -0.10192,0.61153 -0.30577,1.19758 -0.33124,0.89182 -0.76441,1.78364 -0.43317,0.89181 -0.86634,1.75815 -0.20384,0.43317 -0.40768,0.84085 -0.17837,0.38221 -0.35673,0.81538 0.48413,-0.17836 0.99374,-0.30577 0.53509,-0.1274 1.01922,-0.20384 0.48413,-0.10192 0.89181,-0.15288 0.43317,-0.051 0.71346,-0.051 0.2548,0 0.43316,0.0255 0.20385,0 0.35673,0.0255 0.28029,0.051 0.40769,0.15288 0.1274,0.0764 0.33124,0.2548 0.30577,0.33125 0.50961,0.71346 0.20385,0.35672 0.20385,0.81537 0,0.15289 -0.20385,0.40769 -0.17836,0.22932 -0.53509,0.22932 -0.051,0 -0.20384,0 -0.1274,-0.0255 -0.30576,-0.051 -0.15289,0 -0.30577,0 -0.1274,-0.0255 -0.17836,-0.051 -1.22307,0 -2.39517,0.33125 -1.14662,0.33124 -2.2168,0.94278 -0.051,0.0764 -0.0764,0.10192 -0.0764,0.10192 -0.1274,0.17836 -0.051,0.0764 -0.10192,0.10192 l -0.22933,0.25481 -0.40769,-0.051 q -0.15288,-0.0255 -0.33124,-0.051 -0.15288,-0.0255 -0.35673,-0.0765 -0.1274,-0.051 -0.2548,-0.051 -0.12741,0 -0.28029,0 l -0.94278,0.051 0.12741,-0.2548 q -0.25481,-0.10192 -0.33125,-0.10192 l -0.63701,-0.17837 0.17836,-0.50961 q 0.051,-0.1274 0.0764,-0.22932 0,-0.10192 0.051,-0.22932 0.20385,-0.61153 0.43317,-1.24855 0.20385,-0.63701 0.48413,-1.24854 0.35673,-0.81537 0.73893,-1.63075 0.38221,-0.84085 0.73894,-1.68171 0.33124,-0.81538 0.56057,-1.50335 0.2548,-0.71345 0.40769,-1.40142 0.15288,-0.71346 0.20384,-1.45239 0.0764,-0.76441 0.0764,-1.63075 -0.0764,-0.15288 -0.0764,-0.33125 0,-0.22932 0.15288,-0.40768 0.17837,-0.17837 0.40769,-0.30577 0.22932,-0.1274 0.48413,-0.20384 0.28028,-0.0764 0.45865,-0.10193 0.20384,-0.0764 0.45865,-0.1274 0.28028,-0.0764 0.53509,-0.0764 0.58605,0 0.86633,0.30577 0.30577,0.28028 0.30577,0.66249 0.0255,0.051 0.0255,0.10192 0.0255,0.0255 0.051,0.0764 0.10192,0.25481 0.10192,0.56057 0,0.28029 -0.051,0.53509 -0.0255,0.22933 -0.0764,0.50961 -0.051,0.22933 -0.10192,0.45865 -0.051,0.22932 -0.10193,0.45865 z m -2.80285,8.40855 h 0.17837 l 0.0764,-0.0764 z"
         style="font-style:normal;font-variant:normal;font-weight:normal;font-stretch:normal;font-size:25.48046875px;font-family:Brieston;-inkscape-font-specification:'Brieston, Normal';font-variant-ligatures:normal;font-variant-caps:normal;font-variant-numeric:normal;font-feature-settings:normal;text-align:start;writing-mode:lr-tb;text-anchor:start;fill:#fae1e7;fill-opacity:1;stroke:#000000;stroke-width:0.34789425;stroke-miterlimit:4;stroke-dasharray:none"
         id="path1625"
         inkscape:connector-curvature="0" />
      <path
         d="m -434.97592,466.59502 q 0,0.84086 -0.20384,1.8346 -0.17836,0.99373 -0.56057,1.98747 -0.35673,0.99374 -0.89182,1.91104 -0.53509,0.91729 -1.24854,1.63075 -0.68797,0.71345 -1.55431,1.14662 -0.86633,0.43317 -1.86007,0.43317 -1.14662,0 -1.91104,-0.43317 -0.76441,-0.43317 -1.22306,-1.07018 -0.43317,-0.66249 -0.61153,-1.37595 -0.17836,-0.73893 -0.17836,-1.35046 0,-1.1721 0.17836,-2.26776 0.20384,-1.12114 0.66249,-2.24228 -0.1274,-0.28029 -0.2548,-0.73894 -0.10192,-0.48413 -0.10192,-0.78989 0,-0.6625 0.35672,-1.50335 0.35673,-0.84086 0.99374,-1.55431 0.63701,-0.73893 1.52883,-1.22306 0.9173,-0.50961 1.98747,-0.50961 1.27403,0 2.19133,0.53509 0.94277,0.53509 1.52882,1.42691 0.61153,0.86633 0.89182,1.96199 0.28028,1.07018 0.28028,2.19132 z m -6.7778,5.07061 q 0,0.10193 0.0255,0.30577 0.0255,0.17836 0.0764,0.38221 0.0764,0.17836 0.15288,0.33124 0.10193,0.12741 0.25481,0.12741 0.1274,0 0.35673,-0.15289 0.43316,-0.28028 0.81537,-0.68797 0.38221,-0.43317 0.68797,-0.9173 0.30577,-0.50961 0.50961,-1.0447 0.22933,-0.53509 0.38221,-1.01921 -0.61153,0.20384 -1.27402,0.20384 -0.81538,0 -1.65623,-0.22932 -0.20385,0.68797 -0.28029,1.2995 -0.051,0.58605 -0.051,1.40142 z m 3.61823,-4.76484 q 0.0255,-0.17837 0.0255,-0.33125 0,-0.17836 0,-0.35673 0,-0.1274 0,-0.28028 0,-0.15288 -0.0255,-0.28029 -0.0255,-0.2548 -0.15289,-0.68797 -0.1274,-0.45865 -0.35672,-0.89181 -0.20385,-0.45865 -0.50961,-0.76442 -0.28029,-0.33125 -0.58605,-0.33125 -0.20385,0 -0.43317,0.12741 -0.20384,0.10192 -0.40769,0.28028 0.48413,0.1274 0.71345,0.35673 0.35673,0.15288 0.63702,0.35673 0.30576,0.20384 0.30576,0.68797 0,0.17836 -0.10192,0.40769 -0.0764,0.20384 -0.28028,0.35672 l -0.10193,0.10192 q -0.10192,0.15289 -0.15288,0.25481 -0.15288,0.20384 -0.33125,0.43317 -0.15288,0.20384 -0.33124,0.40768 0.43317,0.12741 0.89181,0.15289 0.45865,0 0.89182,0 h 0.22933 z"
         style="font-style:normal;font-variant:normal;font-weight:normal;font-stretch:normal;font-size:25.48046875px;font-family:Brieston;-inkscape-font-specification:'Brieston, Normal';font-variant-ligatures:normal;font-variant-caps:normal;font-variant-numeric:normal;font-feature-settings:normal;text-align:start;writing-mode:lr-tb;text-anchor:start;fill:#fae1e7;fill-opacity:1;stroke:#000000;stroke-width:0.34789425;stroke-miterlimit:4;stroke-dasharray:none"
         id="path1627"
         inkscape:connector-curvature="0" />
      <path
         d="m -415.23533,472.37909 q 0.0764,0.15288 0.0764,0.33124 0,0.38221 0.15289,0.89182 0.10192,0.28029 0.17836,0.53509 0.10192,0.2548 0.15288,0.53509 0.15289,0.63701 0.45865,0.84086 0.0255,0.0255 0.051,0.051 0.051,0.0255 0.10192,0.0764 0.17837,0.1274 0.25481,0.30576 0.0764,0.15289 0.0764,0.20385 0,0.0764 -0.1274,0.2548 -0.1274,0.17837 -0.17837,0.22933 -0.35672,0.28028 -0.78989,0.35672 -0.40769,0.0764 -0.76441,0.0764 -0.96826,0 -1.47787,-0.66249 -0.48413,-0.63701 -0.68797,-1.45238 -0.0765,-0.25481 -0.15289,-0.48413 -0.051,-0.25481 -0.1274,-0.50961 -0.68797,0.20384 -1.40143,0.20384 -1.2995,0 -2.29324,-0.68797 -0.99374,-0.71346 -1.68171,-1.78363 -0.68797,-1.09566 -1.0447,-2.36969 -0.33124,-1.27402 -0.33124,-2.42064 0,-2.14036 0.94277,-3.97496 0.94278,-1.83459 2.80286,-2.90477 0.1274,-0.0764 0.35672,-0.17836 0.25481,-0.10192 0.56057,-0.10192 0.43317,0 0.86634,0.33124 0.45865,0.30577 0.58605,0.71345 0.17836,0.20385 0.28028,0.40769 0.10193,0.20385 0.10193,0.48413 0,0.17836 -0.051,0.30577 -0.051,0.10192 -0.1274,0.22932 l -0.051,0.10192 -0.1274,0.0764 q -0.20384,0.15289 -0.33125,0.17837 -0.0255,0.0255 -0.0255,0.051 0,0 -0.051,0.051 -0.2548,0.20384 -0.50961,0.40769 -0.2548,0.17836 -0.48413,0.3822 -0.35672,0.30577 -0.61153,0.76442 -0.22932,0.43317 -0.3822,0.94278 -0.15289,0.5096 -0.22933,1.04469 -0.0764,0.50961 -0.0764,0.99374 0,0.45865 0.10192,1.07018 0.10192,0.58605 0.28029,1.1721 0.20384,0.56057 0.48413,1.09566 0.28028,0.50961 0.66249,0.81538 0.22932,0.20384 0.40769,0.20384 0.33124,0 0.76441,-0.28028 -0.17836,-0.50961 -0.40769,-0.96826 -0.20384,-0.48413 -0.43317,-0.96826 -0.20384,-0.35672 -0.40768,-0.68797 -0.17837,-0.35673 -0.38221,-0.71345 -0.051,-0.12741 -0.17836,-0.38221 -0.10193,-0.25481 -0.22933,-0.53509 -0.10192,-0.30577 -0.20384,-0.58605 -0.0764,-0.28029 -0.0764,-0.40769 0,-0.28028 0.33124,-0.48413 0.33125,-0.22932 0.76442,-0.3822 0.43316,-0.15289 0.86633,-0.22933 0.45865,-0.0764 0.68798,-0.0764 0.22932,0 0.5096,0.1274 0.30577,0.10192 0.40769,0.30577 l -0.0255,0.45865 q 0.051,-0.15289 0.0764,-0.20385 -0.0255,-0.0255 -0.0255,-0.0764 0.0255,-0.051 0.0255,-0.10192 0.12741,0.15288 0.15289,0.30576 0.0255,0.15289 0.0255,0.22933 0.0255,0.0764 0,0.17836 0,0.0764 0,0.1274 0,0.25481 0.15288,0.61154 0.0764,0.17836 0.15288,0.35672 0.10192,0.17837 0.17837,0.38221 0.051,0.15288 0.10192,0.30576 0.0764,0.12741 0.1274,0.25481 0.43317,-1.07018 0.50961,-2.29324 0.0764,-1.22307 0.0764,-2.36969 0,-0.33124 -0.0255,-0.71345 -0.0255,-0.38221 -0.15288,-0.73893 -0.10192,-0.35673 -0.33125,-0.63701 -0.20384,-0.28029 -0.58605,-0.40769 -0.0255,-0.0255 -0.0764,-0.0255 -0.43317,-0.20385 -0.61153,-0.25481 -0.17837,-0.0764 -0.25481,-0.0764 -0.051,0 -0.051,0.051 l -0.15288,-0.35672 q 0.0764,0.20384 0.0764,0.2548 0,0.051 -0.0255,0.051 -0.20384,0 -0.30577,-0.2548 -0.10192,-0.28029 -0.10192,-0.43317 0,-0.38221 0.20385,-0.61153 0.20384,-0.22933 0.48413,-0.35673 0.30576,-0.15288 0.61153,-0.20384 0.30576,-0.051 0.50961,-0.051 0.15288,0 0.2548,0.0255 0.28029,0 0.56057,0.10192 0.30577,0.0764 0.58605,0.20384 0.7899,0.33125 1.27403,0.86634 0.48412,0.53509 0.73893,1.14662 0.28028,0.61153 0.35673,1.24854 0.10192,0.63701 0.10192,1.1721 0,1.68171 -0.22933,3.41439 -0.22932,1.70719 -1.01922,3.36342 -0.22932,0.50961 -0.56057,0.94278 -0.33124,0.43316 -0.66249,0.86633 0,0.051 0,0.1274 0.0255,0.051 0.0255,0.10193 z"
         style="font-style:normal;font-variant:normal;font-weight:normal;font-stretch:normal;font-size:25.48046875px;font-family:Brieston;-inkscape-font-specification:'Brieston, Normal';font-variant-ligatures:normal;font-variant-caps:normal;font-variant-numeric:normal;font-feature-settings:normal;text-align:start;writing-mode:lr-tb;text-anchor:start;fill:#fae1e7;fill-opacity:1;stroke:#000000;stroke-width:0.34789425;stroke-miterlimit:4;stroke-dasharray:none"
         id="path1629"
         inkscape:connector-curvature="0" />
      <path
         d="m -406.83673,471.02862 q 0.1274,-0.1274 0.22932,-0.33124 0.0764,-0.12741 0.1274,-0.25481 0.0764,-0.1274 0.15289,-0.2548 0.28028,-0.43317 0.45864,-0.86634 0.20385,-0.43317 0.38221,-0.94278 0.33125,-0.96825 0.71345,-1.86007 0.40769,-0.89182 0.84086,-1.78363 0.20384,-0.43317 0.30576,-0.71346 0.10193,-0.30576 0.15289,-0.76441 0.051,-0.17836 0.10192,-0.33125 0.051,-0.15288 0.10192,-0.33124 0,-0.28029 0.15288,-0.43317 0.15289,-0.17836 0.35673,-0.22932 0.28029,-0.28029 0.68797,-0.28029 0.15289,0 0.40769,0.0764 0.25481,0.051 0.45865,0.22933 h 0.0255 0.0764 q 0.20385,0 0.45865,0.0255 0.28028,0.0255 0.50961,0.1274 0.22932,0.0764 0.38221,0.2548 0.17836,0.15289 0.17836,0.43317 l -0.051,0.051 q 0,0.051 0.0255,0.10192 0.0255,0.0255 0.0255,0.0765 0,0.20384 -0.0764,0.3822 -0.0764,0.17837 -0.15288,0.33125 -0.051,0.10192 -0.12741,0.20384 -0.051,0.0764 -0.10192,0.20385 -0.0764,0.28028 -0.10192,0.56057 -0.0255,0.2548 -0.10192,0.53509 -0.12741,0.45865 -0.25481,0.91729 -0.1274,0.45865 -0.2548,0.9173 -0.051,0.17836 -0.1274,0.50961 -0.0765,0.30577 -0.15289,0.66249 -0.051,0.35673 -0.10192,0.68797 -0.051,0.30577 -0.051,0.48413 0,0.0255 -0.0255,0.15289 -0.0255,0.10192 -0.051,0.2548 -0.0255,0.1274 -0.051,0.22933 -0.0255,0.10192 -0.0255,0.1274 -0.10192,0.30576 -0.15289,0.94277 -0.0255,0.30577 -0.0255,0.58606 0,0.28028 0,0.50961 0,0.1274 0.0255,0.15288 0.58606,0.0255 0.58606,0.58605 0,0.22932 -0.15289,0.48413 -0.1274,0.2548 -0.3822,0.45865 -0.22933,0.17836 -0.53509,0.30576 -0.28029,0.1274 -0.58606,0.1274 -0.73893,0 -1.27402,-0.45864 -0.50961,-0.45865 -0.66249,-1.12115 -0.38221,0.48413 -0.84086,0.9173 -0.45864,0.43317 -1.01922,0.76442 -0.53509,0.33124 -1.1721,0.53509 -0.61153,0.20384 -1.32498,0.20384 -1.09566,0 -1.93652,-0.56057 -0.66249,-0.43317 -1.07018,-1.14662 -0.3822,-0.71346 -0.58605,-1.55431 -0.20384,-0.84086 -0.2548,-1.70719 -0.051,-0.86634 -0.051,-1.60527 0,-0.81538 0.0764,-1.68171 0.0764,-0.89182 0.28028,-1.75815 0.20385,-0.89182 0.53509,-1.7072 0.33125,-0.84085 0.81538,-1.50334 0.0764,-0.12741 0.30576,-0.33125 0.25481,-0.22932 0.68798,-0.22932 0.35672,0 0.73893,0.15288 0.38221,0.1274 0.63701,0.30576 0.051,0.051 0.15288,0.10193 0.33125,0.20384 0.58606,0.43316 0.28028,0.22933 0.28028,0.6625 0,0.2548 -0.17836,0.43316 -0.0255,0.20385 -0.1274,0.38221 -0.10193,0.17836 -0.20385,0.33125 -0.81537,1.22306 -1.01922,2.62449 -0.20384,1.40142 -0.20384,2.82833 0,0.22932 0,0.66249 0.0255,0.43317 0.0764,0.89182 0.051,0.45864 0.15288,0.86633 0.12741,0.38221 0.35673,0.50961 0.15288,0 0.35673,-0.10192 0.20384,-0.10192 0.40768,-0.2548 0.22933,-0.15289 0.43317,-0.30577 0.20385,-0.17836 0.33125,-0.30577 0,0.0255 0.051,-0.0764 0.0255,-0.0255 0.0764,-0.1274 0.0764,-0.10192 0.1274,-0.17836 0.0764,-0.10193 0.17837,-0.20385 z"
         style="font-style:normal;font-variant:normal;font-weight:normal;font-stretch:normal;font-size:25.48046875px;font-family:Brieston;-inkscape-font-specification:'Brieston, Normal';font-variant-ligatures:normal;font-variant-caps:normal;font-variant-numeric:normal;font-feature-settings:normal;text-align:start;writing-mode:lr-tb;text-anchor:start;fill:#fae1e7;fill-opacity:1;stroke:#000000;stroke-width:0.34789425;stroke-miterlimit:4;stroke-dasharray:none"
         id="path1631"
         inkscape:connector-curvature="0" />
      <path
         d="m -389.52194,468.09837 q -0.35673,0.0764 -0.71346,0.15288 -0.33124,0.051 -0.68797,0.10192 -1.07018,0.20385 -2.14036,0.38221 -1.0447,0.17836 -2.11488,0.35673 -0.17836,0.3822 -0.38221,0.96826 -0.20384,0.58605 -0.40768,1.24854 -0.17837,0.63701 -0.33125,1.24854 -0.1274,0.58605 -0.1274,1.01922 0.051,0.051 0.051,0.051 h 0.0764 q 0.051,0.0255 0.1274,0.0255 0.12741,0 0.17837,0.0255 0.0764,0 0.15288,0.0255 0.0764,0 0.1274,0 0.33125,0.10192 0.81538,0.10192 0.58605,0 1.27402,-0.0764 0.71345,-0.10192 1.40143,-0.30576 0.71345,-0.20385 1.32498,-0.53509 0.61153,-0.35673 0.96826,-0.86634 0.051,-0.051 0.10192,-0.15288 0.1274,-0.20385 0.33125,-0.30577 0.22932,-0.10192 0.40768,-0.10192 0.58605,0 0.96826,0.48413 0.40769,0.48413 0.40769,1.0447 0,0.28028 -0.1274,0.53509 -0.35673,0.76441 -1.19759,1.2995 -0.81537,0.53509 -1.80911,0.86634 -0.99374,0.33124 -2.01296,0.48413 -0.99373,0.15288 -1.73267,0.15288 -0.71345,0 -1.57979,-0.10192 -0.86633,-0.0764 -1.63075,-0.35673 -0.73893,-0.28028 -1.24854,-0.81537 -0.50961,-0.56057 -0.50961,-1.47787 0,-0.58605 0.10192,-1.27402 0.12741,-0.68798 0.30577,-1.37595 0.17836,-0.71345 0.38221,-1.40142 0.22932,-0.68798 0.43316,-1.24855 0,-0.22932 -0.0255,-0.48413 0,-0.28028 0,-0.50961 0,-0.3822 0.20385,-0.71345 0.20384,-0.33125 0.58605,-0.38221 0.15288,-0.3822 0.30576,-0.76441 0.17837,-0.40769 0.35673,-0.81538 0.22932,-0.53508 0.53509,-1.07017 0.38221,-1.50335 1.14662,-2.24229 0.7899,-0.73893 0.94278,-0.73893 0.61153,0 1.22306,0.0764 0.61153,0.051 1.24854,0.051 0.40769,0 0.7899,0 0.40769,-0.0255 0.84085,-0.0255 h 0.45865 0.61153 q 0.38221,0 0.76442,-0.051 0.3822,-0.051 0.78989,-0.051 0.20385,0 0.30577,0.0255 0.40769,0.0255 0.78989,0.051 0.40769,0.0255 0.81538,0.0764 0.10192,0.0255 0.2548,0.0255 0.28029,0.051 0.50961,0.20385 0.25481,0.1274 0.25481,0.43317 0,0.28028 -0.20385,0.5096 -0.17836,0.22933 -0.30576,0.30577 -0.10193,0.0764 -0.25481,0.20384 -0.1274,0.10193 -0.28028,0.22933 -0.48413,0.35672 -0.9173,0.43317 -0.43317,0.0764 -1.01922,0.0764 -0.30576,0 -0.61153,0.0255 -0.30577,0 -0.43317,0 l -3.43986,0.15288 q 0,0.10192 -0.1274,0.28029 -0.12741,0.33124 -0.30577,0.61153 -0.15288,0.2548 -0.38221,0.53509 -0.30576,0.35672 -0.56057,0.71345 -0.22932,0.35673 -0.43316,0.78989 0.0764,-0.0255 0.15288,-0.0255 0.0764,0 0.15288,-0.0255 0.22933,-0.051 0.43317,-0.0764 0.22932,-0.0255 0.43317,-0.051 0.051,-0.0255 0.15288,-0.051 0.1274,-0.0255 0.35673,-0.0255 0.10192,-0.0255 0.17836,-0.0255 0.10192,-0.0255 0.22932,-0.0255 0.17837,0 0.56057,-0.0764 0.22933,-0.051 0.43317,-0.10192 0.22933,-0.051 0.45865,-0.0764 0.10192,-0.0255 0.20384,-0.0255 0.12741,0 0.25481,-0.051 0.20384,-0.051 0.22932,-0.0764 0.43317,-0.1274 0.68798,-0.1274 0.43316,0 0.61153,0.2548 0.20384,0.22933 0.20384,0.61154 0,0.73893 -0.2548,1.19758 -0.25481,0.45865 -1.09566,0.63701 z"
         style="font-style:normal;font-variant:normal;font-weight:normal;font-stretch:normal;font-size:25.48046875px;font-family:Brieston;-inkscape-font-specification:'Brieston, Normal';font-variant-ligatures:normal;font-variant-caps:normal;font-variant-numeric:normal;font-feature-settings:normal;text-align:start;writing-mode:lr-tb;text-anchor:start;fill:#fae1e7;fill-opacity:1;stroke:#000000;stroke-width:0.34789425;stroke-miterlimit:4;stroke-dasharray:none"
         id="path1633"
         inkscape:connector-curvature="0" />
      <path
         d="m -371.05458,464.25082 q 0.99373,-0.56057 1.98747,-1.12114 0.99374,-0.56057 1.962,-1.1721 0.17836,-0.12741 0.33124,-0.22933 0.17837,-0.10192 0.33125,-0.22932 -1.83459,0.051 -3.46534,0.50961 -1.63075,0.43317 -2.82833,1.55431 h -2.59901 l 0.0255,-0.051 h -0.051 q -0.051,0 -0.10192,0.0255 -0.12741,0.0255 -0.25481,0.051 -0.10192,0 -0.22932,0 -0.53509,0 -0.9173,-0.30577 -0.35673,-0.30577 -0.35673,-0.73893 0,-0.12741 0.0255,-0.20385 0.0255,-0.10192 0.051,-0.20384 0.25481,-0.50961 0.63702,-0.9173 0.40768,-0.40768 0.96825,-0.61153 0.45865,-0.17836 0.94278,-0.30576 0.48413,-0.15289 0.94278,-0.28029 0.96826,-0.30577 1.78363,-0.53509 0.84086,-0.22932 1.63075,-0.35673 0.81538,-0.15288 1.68171,-0.22932 0.86634,-0.0764 1.88556,-0.0764 0.58605,0 1.22306,0.10192 0.63701,0.0764 1.19758,0.35673 0.56057,0.2548 0.9173,0.71345 0.35672,0.43317 0.35672,1.1721 0,0.50961 -0.20384,0.9173 -0.17836,0.38221 -0.48413,0.71345 -0.30576,0.33125 -0.68797,0.61153 -0.38221,0.25481 -0.76441,0.48413 -0.0255,0.0255 -0.051,0.051 -0.0255,0 -0.051,0.0255 -0.15288,0.12741 -0.30576,0.22933 -0.15288,0.10192 -0.33125,0.17836 -0.0764,0.051 -0.17836,0.10192 -0.0764,0.0255 -0.20385,0.10192 -0.1274,0.10193 -0.28028,0.17837 -0.1274,0.0764 -0.25481,0.15288 -0.71345,0.33125 -1.27402,0.68797 0.81538,0.0764 1.55431,0.33125 0.76441,0.2548 1.35046,0.68797 0.58606,0.43317 0.94278,1.07018 0.35673,0.61153 0.35673,1.42691 0,0.89181 -0.38221,1.68171 -0.38221,0.78989 -0.99374,1.47787 -0.61153,0.68797 -1.35046,1.27402 -0.71345,0.56057 -1.40143,1.01922 -0.78989,0.56057 -1.75815,1.0447 -0.94278,0.45865 -1.962,0.81537 -1.01921,0.35673 -2.06391,0.56057 -1.0447,0.20385 -2.03844,0.20385 -0.28029,0 -0.76442,-0.051 -0.45864,-0.051 -0.40768,-1.50335 0.0764,-1.45239 0.35672,-1.27403 0.28029,0.15289 0.53509,0.20385 0.28029,0.051 0.58605,0.051 0.58606,0 1.45239,-0.22933 0.86634,-0.22932 1.80911,-0.61153 0.94278,-0.40768 1.88556,-0.94277 0.94278,-0.53509 1.68171,-1.14662 0.76441,-0.61154 1.22306,-1.24855 0.48413,-0.66249 0.48413,-1.2995 0,-0.38221 -0.30576,-0.58605 -0.28029,-0.20385 -0.68798,-0.30577 -0.40768,-0.10192 -0.84085,-0.1274 -0.40769,-0.0255 -0.66249,-0.0255 -0.6625,0 -1.29951,0.0764 -0.63701,0.0764 -1.2995,0.17836 -0.051,0.17837 -0.1274,0.45865 -0.0764,0.25481 -0.15289,0.50961 -0.0764,0.25481 -0.1274,0.43317 -0.051,0.17836 -0.051,0.20384 0,0.22933 -0.1274,0.38221 -0.0255,0.10192 -0.051,0.17836 0,0.051 -0.051,0.12741 -0.051,0.15288 -0.0765,0.30576 -0.0255,0.15288 -0.0764,0.30577 -0.051,0.28028 -0.1274,0.53509 -0.051,0.22932 -0.15288,0.48413 -0.051,0.10192 -0.0764,0.20384 -0.0255,0.0764 -0.051,0.20384 -0.051,0.20385 -0.051,0.30577 0,0.1274 0.0255,0.22932 0.0255,0.10193 0.0255,0.22933 v 0.17836 l -0.10192,0.15288 q -0.10192,0.12741 -0.35672,0.22933 -0.22933,0.0764 -0.35673,0.0764 -0.33125,0 -0.71345,-0.1274 -0.38221,-0.15289 -0.71346,-0.38221 -0.33124,-0.2548 -0.53509,-0.56057 -0.20384,-0.33125 -0.20384,-0.68797 0,-0.15289 0.0255,-0.28029 0.0255,-0.1274 0.051,-0.2548 0.22933,-0.6625 0.40769,-1.35047 0.17836,-0.71345 0.30576,-1.4269 -0.35672,-0.25481 -0.40768,-0.61154 v -0.20384 q -0.0255,-0.051 -0.0764,-0.10192 -0.10193,-0.1274 -0.20385,-0.28029 -0.0764,-0.15288 -0.0764,-0.30576 0,-0.30577 0.25481,-0.48413 0.2548,-0.17836 0.5096,-0.30577 0.0764,-0.051 0.15289,-0.0764 0.10192,-0.051 0.17836,-0.10192 0.15288,-0.0764 0.22932,-0.15288 l 0.15289,-0.68797 q 0.051,-0.20385 0.051,-0.40769 0,-0.20385 0.051,-0.40769 0.0255,-0.1274 0.051,-0.20384 0.051,-0.10193 0.0764,-0.20385 0,-0.33124 0.30577,-0.48413 0.30576,-0.15288 0.58605,-0.15288 0.10192,0 0.45865,0 0.35672,0 0.76441,0.0255 0.28029,0.051 0.58605,0.10192 0.33125,0.0255 0.61153,0.15289 0.051,0.0255 0.0764,0.051 0.051,0.0255 0.10193,0.0764 z"
         style="font-style:normal;font-variant:normal;font-weight:normal;font-stretch:normal;font-size:25.48046875px;font-family:Brieston;-inkscape-font-specification:'Brieston, Normal';font-variant-ligatures:normal;font-variant-caps:normal;font-variant-numeric:normal;font-feature-settings:normal;text-align:start;writing-mode:lr-tb;text-anchor:start;fill:#fae1e7;fill-opacity:1;stroke:#000000;stroke-width:0.34789425;stroke-miterlimit:4;stroke-dasharray:none"
         id="path1635"
         inkscape:connector-curvature="0" />
      <path
         d="m -357.61762,471.02862 q 0.1274,-0.1274 0.22933,-0.33124 0.0764,-0.12741 0.1274,-0.25481 0.0764,-0.1274 0.15288,-0.2548 0.28029,-0.43317 0.45865,-0.86634 0.20384,-0.43317 0.38221,-0.94278 0.33124,-0.96825 0.71345,-1.86007 0.40769,-0.89182 0.84086,-1.78363 0.20384,-0.43317 0.30576,-0.71346 0.10192,-0.30576 0.15288,-0.76441 0.051,-0.17836 0.10193,-0.33125 0.051,-0.15288 0.10192,-0.33124 0,-0.28029 0.15288,-0.43317 0.15288,-0.17836 0.35673,-0.22932 0.28028,-0.28029 0.68797,-0.28029 0.15288,0 0.40769,0.0764 0.2548,0.051 0.45865,0.22933 h 0.0255 0.0764 q 0.20384,0 0.45865,0.0255 0.28028,0.0255 0.50961,0.1274 0.22932,0.0764 0.3822,0.2548 0.17837,0.15289 0.17837,0.43317 l -0.051,0.051 q 0,0.051 0.0255,0.10192 0.0255,0.0255 0.0255,0.0765 0,0.20384 -0.0764,0.3822 -0.0764,0.17837 -0.15288,0.33125 -0.051,0.10192 -0.1274,0.20384 -0.051,0.0764 -0.10192,0.20385 -0.0764,0.28028 -0.10192,0.56057 -0.0255,0.2548 -0.10193,0.53509 -0.1274,0.45865 -0.2548,0.91729 -0.1274,0.45865 -0.25481,0.9173 -0.051,0.17836 -0.1274,0.50961 -0.0764,0.30577 -0.15288,0.66249 -0.051,0.35673 -0.10192,0.68797 -0.051,0.30577 -0.051,0.48413 0,0.0255 -0.0255,0.15289 -0.0255,0.10192 -0.051,0.2548 -0.0255,0.1274 -0.051,0.22933 -0.0255,0.10192 -0.0255,0.1274 -0.10192,0.30576 -0.15288,0.94277 -0.0255,0.30577 -0.0255,0.58606 0,0.28028 0,0.50961 0,0.1274 0.0255,0.15288 0.58605,0.0255 0.58605,0.58605 0,0.22932 -0.15288,0.48413 -0.1274,0.2548 -0.38221,0.45865 -0.22932,0.17836 -0.53509,0.30576 -0.28028,0.1274 -0.58605,0.1274 -0.73893,0 -1.27402,-0.45864 -0.50961,-0.45865 -0.66249,-1.12115 -0.38221,0.48413 -0.84086,0.9173 -0.45865,0.43317 -1.01922,0.76442 -0.53509,0.33124 -1.1721,0.53509 -0.61153,0.20384 -1.32498,0.20384 -1.09567,0 -1.93652,-0.56057 -0.66249,-0.43317 -1.07018,-1.14662 -0.38221,-0.71346 -0.58605,-1.55431 -0.20384,-0.84086 -0.25481,-1.70719 -0.051,-0.86634 -0.051,-1.60527 0,-0.81538 0.0764,-1.68171 0.0765,-0.89182 0.28029,-1.75815 0.20384,-0.89182 0.53509,-1.7072 0.33125,-0.84085 0.81537,-1.50334 0.0765,-0.12741 0.30577,-0.33125 0.25481,-0.22932 0.68797,-0.22932 0.35673,0 0.73894,0.15288 0.3822,0.1274 0.63701,0.30576 0.051,0.051 0.15288,0.10193 0.33125,0.20384 0.58605,0.43316 0.28029,0.22933 0.28029,0.6625 0,0.2548 -0.17837,0.43316 -0.0255,0.20385 -0.1274,0.38221 -0.10192,0.17836 -0.20384,0.33125 -0.81538,1.22306 -1.01922,2.62449 -0.20384,1.40142 -0.20384,2.82833 0,0.22932 0,0.66249 0.0255,0.43317 0.0764,0.89182 0.051,0.45864 0.15288,0.86633 0.1274,0.38221 0.35673,0.50961 0.15288,0 0.35672,-0.10192 0.20385,-0.10192 0.40769,-0.2548 0.22932,-0.15289 0.43317,-0.30577 0.20384,-0.17836 0.33124,-0.30577 0,0.0255 0.051,-0.0764 0.0255,-0.0255 0.0764,-0.1274 0.0764,-0.10192 0.1274,-0.17836 0.0764,-0.10193 0.17836,-0.20385 z"
         style="font-style:normal;font-variant:normal;font-weight:normal;font-stretch:normal;font-size:25.48046875px;font-family:Brieston;-inkscape-font-specification:'Brieston, Normal';font-variant-ligatures:normal;font-variant-caps:normal;font-variant-numeric:normal;font-feature-settings:normal;text-align:start;writing-mode:lr-tb;text-anchor:start;fill:#fae1e7;fill-opacity:1;stroke:#000000;stroke-width:0.34789425;stroke-miterlimit:4;stroke-dasharray:none"
         id="path1637"
         inkscape:connector-curvature="0" />
      <path
         d="m -342.34128,464.70947 q 0.1274,-0.20385 0.17836,-0.43317 0.051,-0.25481 0.051,-0.58605 -0.051,-0.10192 -0.051,-0.17837 -0.051,-0.15288 -0.0764,-0.28028 0,-0.15288 0,-0.20384 0.0255,-0.0255 0.0255,-0.051 -0.0255,0.0255 -0.10192,0.0255 -0.10192,0 -0.28029,-0.0255 -0.17836,-0.051 -0.45864,-0.051 -1.0447,0 -1.88556,0.68798 -0.84085,0.68797 -1.27402,1.57979 -0.10192,0.22932 -0.10192,0.33124 0,0.20385 0.22932,0.45865 0.9173,0.9173 1.91104,1.80911 0.99373,0.86634 2.11487,1.55431 0.10193,0.051 0.22933,0.15288 0.1274,0.0764 0.2548,0.17837 0.10193,0.10192 0.25481,0.20384 0.81537,0.58605 1.45238,1.40143 0.6625,0.78989 0.6625,1.86007 0,0.28029 -0.0764,0.48413 -0.0765,0.17836 -0.15289,0.35673 l -0.17836,0.35672 h -0.10192 q -0.30577,0.33125 -0.81538,0.56057 -0.48413,0.20385 -1.0447,0.33125 -0.53509,0.10192 -1.09566,0.15288 -0.56057,0.0255 -0.99374,0.0255 -0.2548,0 -0.84085,-0.051 -0.58605,-0.0764 -1.32498,-0.20384 -0.73894,-0.15288 -1.55431,-0.33125 -0.7899,-0.20384 -1.45239,-0.43317 -0.63701,-0.2548 -1.07018,-0.53508 -0.40769,-0.30577 -0.40769,-0.63702 0,-0.35672 0.20385,-0.53509 0.22932,-0.20384 0.53509,-0.30576 0.30576,-0.10192 0.63701,-0.1274 0.35672,-0.0255 0.61153,-0.0255 0.58605,0 1.1721,0.1274 0.86634,0.20384 1.73267,0.35672 0.89182,0.15289 1.78364,0.15289 0.28028,0 0.66249,-0.0255 0.40769,-0.0255 0.63701,-0.0765 -0.20384,-0.35672 -0.66249,-0.68797 -0.43317,-0.35672 -0.7899,-0.58605 -0.61153,-0.43317 -1.32498,-0.9173 -0.68797,-0.48412 -1.37595,-1.01921 -0.66249,-0.53509 -1.27402,-1.09566 -0.58605,-0.58606 -1.0447,-1.14663 -0.28028,-0.35672 -0.50961,-0.81537 -0.20384,-0.45865 -0.20384,-0.94278 0,-0.58605 0.15288,-1.01922 0.17836,-0.45864 0.45865,-0.91729 0.40769,-0.68798 0.96826,-1.32499 0.56057,-0.66249 1.2995,-1.14662 0.73893,-0.48413 1.65623,-0.76441 0.9173,-0.30577 2.01296,-0.30577 0.63701,0 1.37594,0.15288 0.73894,0.15289 1.37595,0.50961 0.63701,0.33125 1.09566,0.86634 0.45865,0.53509 0.53509,1.27402 0.0255,0.12741 0.0255,0.28029 0,0.15288 0,0.35672 0,0.35673 -0.051,0.71346 -0.0255,0.35672 -0.0255,0.71345 0,0.10192 0,0.20384 0.0255,0.0765 0.0255,0.17837 0,0.45865 -0.30577,0.68797 -0.28028,0.20384 -0.68797,0.30577 -0.0255,0 -0.17836,0.051 -0.25481,0.10192 -0.50961,0.10192 h -0.22933 q -0.2548,0.0764 -0.53509,0.0764 -0.3822,0 -0.63701,-0.10192 -0.2548,-0.1274 -0.40769,-0.28029 -0.15288,-0.17836 -0.20384,-0.35672 -0.051,-0.20385 -0.051,-0.38221 -0.0255,-0.10192 -0.051,-0.17836 -0.0255,-0.10193 -0.0255,-0.17837 0,-0.17836 0.10192,-0.35672 z"
         style="font-style:normal;font-variant:normal;font-weight:normal;font-stretch:normal;font-size:25.48046875px;font-family:Brieston;-inkscape-font-specification:'Brieston, Normal';font-variant-ligatures:normal;font-variant-caps:normal;font-variant-numeric:normal;font-feature-settings:normal;text-align:start;writing-mode:lr-tb;text-anchor:start;fill:#fae1e7;fill-opacity:1;stroke:#000000;stroke-width:0.34789425;stroke-miterlimit:4;stroke-dasharray:none"
         id="path1639"
         inkscape:connector-curvature="0" />
      <path
         d="m -327.82258,472.99062 q 0,0.1274 -0.0255,0.22932 0,0.0764 -0.0255,0.20385 -0.22933,0.84085 -0.81538,1.47786 -0.56057,0.63702 -1.35046,1.09566 -0.7899,0.43317 -1.73267,0.63702 -0.9173,0.22932 -1.86008,0.22932 -0.68797,0 -1.35046,-0.20384 -0.63701,-0.17837 -1.19759,-0.48413 -0.71345,-0.38221 -1.1721,-0.89182 -0.43316,-0.53509 -0.68797,-1.09566 -0.22932,-0.58605 -0.33125,-1.19758 -0.0764,-0.61153 -0.0764,-1.1721 0,-2.39517 0.7899,-4.61197 0.78989,-2.2168 2.11488,-4.28072 0.35672,-0.53509 0.76441,-1.07018 0.40769,-0.53509 0.96826,-0.94277 0.56057,-0.43317 1.2995,-0.68798 0.73894,-0.28028 1.75815,-0.28028 1.55431,0 2.47161,0.84085 0.9173,0.81538 0.9173,1.98748 0,0.20384 -0.0255,0.40769 -0.0255,0.20384 -0.0764,0.40769 -0.051,0.17836 -0.0765,0.35672 -0.0255,0.17837 -0.0764,0.35673 -0.051,0.1274 -0.051,0.2548 0.0255,0.10193 0,0.22933 -0.17836,0.56057 -0.9173,0.71345 -0.0764,0 -0.28028,0.051 -0.25481,0.051 -0.48413,0.051 -0.051,0 -0.10192,0 -0.051,-0.0255 -0.10192,-0.0255 -0.25481,0.051 -0.38221,0.051 -0.15288,0 -0.40769,-0.0255 -0.22932,-0.051 -0.48413,-0.15288 -0.22932,-0.1274 -0.40768,-0.30577 -0.15289,-0.20384 -0.15289,-0.53509 0,-0.0764 0.0255,-0.1274 0.0255,-0.051 0.0255,-0.1274 0,-0.40769 0.051,-0.76441 0.051,-0.38221 0.17837,-0.76442 -0.38221,0.10192 -0.71346,0.45865 -0.33124,0.33125 -0.53508,0.63701 -0.81538,1.12114 -1.50335,2.29324 -0.66249,1.17211 -1.01922,2.52257 -0.0764,0.25481 -0.15288,0.61153 -0.0765,0.33125 -0.15289,0.68797 -0.051,0.35673 -0.10192,0.71346 -0.051,0.33124 -0.051,0.56057 v 0.89181 q 0,0.89182 0.40769,1.50335 0.40769,0.61153 1.4269,0.61153 1.0447,0 1.86008,-0.45864 0.81537,-0.48413 1.27402,-1.40143 0.0255,-0.051 0.0764,-0.17836 0.051,-0.12741 0.12741,-0.25481 0.1274,-0.28028 0.33124,-0.45865 0.20385,-0.20384 0.53509,-0.20384 0.33125,0 0.58605,0.10192 0.28029,0.0764 0.48413,0.38221 0.1274,0.20384 0.25481,0.50961 0.15288,0.28028 0.15288,0.63701 z"
         style="font-style:normal;font-variant:normal;font-weight:normal;font-stretch:normal;font-size:25.48046875px;font-family:Brieston;-inkscape-font-specification:'Brieston, Normal';font-variant-ligatures:normal;font-variant-caps:normal;font-variant-numeric:normal;font-feature-settings:normal;text-align:start;writing-mode:lr-tb;text-anchor:start;fill:#fae1e7;fill-opacity:1;stroke:#000000;stroke-width:0.34789425;stroke-miterlimit:4;stroke-dasharray:none"
         id="path1641"
         inkscape:connector-curvature="0" />
      <path
         d="m -322.1277,462.64555 q 0.28029,-0.33125 0.56057,-0.66249 0.28029,-0.35673 0.61153,-0.68798 0.50961,-0.56057 1.09566,-1.01921 0.58606,-0.48413 1.40143,-0.48413 0.66249,0 1.0447,0.33124 0.40769,0.33125 0.61153,0.81538 0.22933,0.48413 0.33125,1.07018 0.10192,0.56057 0.1274,1.07018 0.0255,0.1274 0.0255,0.2548 0,0.1274 0,0.25481 0,1.5543 -0.2548,3.05765 -0.25481,1.50335 -0.61154,3.0067 0.35673,0 0.53509,0.28028 0.20385,0.28029 0.20385,0.38221 0,0.30577 -0.15289,0.58605 -0.0764,0.10192 -0.1274,0.17836 -0.051,0.0764 -0.10192,0.15289 -0.33125,0.56057 -0.96826,0.73893 -0.1274,0.50961 -0.2548,1.01922 -0.1274,0.48413 -0.25481,0.99374 -0.1274,0.56057 -0.20384,1.12114 -0.0764,0.56057 -0.0764,1.14662 0,0.20384 0,0.38221 0,0.17836 0.0255,0.3822 0.0255,0.12741 0.051,0.25481 0.0255,0.15288 0.0255,0.28028 0,0.43317 -0.38221,0.61153 -0.35672,0.17837 -0.66249,0.17837 -0.2548,0 -0.43317,-0.0764 -0.15288,-0.0765 -0.22932,-0.12741 -0.81538,-0.66249 -1.01922,-1.35046 -0.17836,-0.68797 -0.17836,-1.42691 0,-0.84085 0.1274,-1.68171 0.15288,-0.86633 0.40769,-1.68171 -0.73894,0 -1.47787,0.0764 -0.73893,0.0764 -1.47787,0.20385 l -0.61153,2.14036 q -0.051,0.1274 -0.051,0.2548 0.0255,0.1274 -0.0255,0.2548 -0.051,0.20385 -0.22932,0.45865 -0.17837,0.22933 -0.63702,0.33125 -0.28028,0.10192 -0.50961,0.1274 -0.20384,0 -0.48412,0 -0.10193,0 -0.15289,0.0255 -0.1274,0.0255 -0.40768,0.0255 -0.33125,0 -0.56058,-0.10192 -0.22932,-0.1274 -0.35672,-0.30576 -0.15288,-0.17837 -0.20385,-0.35673 -0.051,-0.17836 -0.051,-0.28029 0,-0.1274 0.051,-0.33124 2.82834,-7.51674 3.36343,-8.38308 0.53509,-0.89181 1.14662,-1.73267 0.63701,-0.86633 1.40142,-1.75815 z m -0.73893,6.95617 q 0.20384,-0.0255 0.40769,-0.0255 0.22932,-0.0255 0.43317,-0.0255 h 0.48412 q 0.0765,0 0.15289,0 0.0764,-0.0255 0.15288,-0.0255 0.1274,0 0.2548,0.0255 0.15289,0.0255 0.30577,0.0255 h 0.45865 q 0.20384,-0.7899 0.35672,-1.47787 0.17837,-0.68797 0.28029,-1.35047 0.1274,-0.68797 0.17836,-1.40142 0.0764,-0.71345 0.0764,-1.52883 -2.14035,2.59901 -3.54178,5.78407 z"
         style="font-style:normal;font-variant:normal;font-weight:normal;font-stretch:normal;font-size:25.48046875px;font-family:Brieston;-inkscape-font-specification:'Brieston, Normal';font-variant-ligatures:normal;font-variant-caps:normal;font-variant-numeric:normal;font-feature-settings:normal;text-align:start;writing-mode:lr-tb;text-anchor:start;fill:#fae1e7;fill-opacity:1;stroke:#000000;stroke-width:0.34789425;stroke-miterlimit:4;stroke-dasharray:none"
         id="path1643"
         inkscape:connector-curvature="0" />
      <path
         d="m -309.5929,464.25082 q 0.99374,-0.56057 1.98748,-1.12114 0.99374,-0.56057 1.96199,-1.1721 0.17837,-0.12741 0.33125,-0.22933 0.17836,-0.10192 0.33125,-0.22932 -1.8346,0.051 -3.46535,0.50961 -1.63075,0.43317 -2.82833,1.55431 h -2.59901 l 0.0255,-0.051 h -0.051 q -0.051,0 -0.10192,0.0255 -0.1274,0.0255 -0.2548,0.051 -0.10193,0 -0.22933,0 -0.53509,0 -0.9173,-0.30577 -0.35672,-0.30577 -0.35672,-0.73893 0,-0.12741 0.0255,-0.20385 0.0255,-0.10192 0.051,-0.20384 0.2548,-0.50961 0.63701,-0.9173 0.40769,-0.40768 0.96826,-0.61153 0.45865,-0.17836 0.94278,-0.30576 0.48413,-0.15289 0.94277,-0.28029 0.96826,-0.30577 1.78364,-0.53509 0.84085,-0.22932 1.63075,-0.35673 0.81537,-0.15288 1.68171,-0.22932 0.86633,-0.0764 1.88555,-0.0764 0.58605,0 1.22306,0.10192 0.63702,0.0764 1.19759,0.35673 0.56057,0.2548 0.91729,0.71345 0.35673,0.43317 0.35673,1.1721 0,0.50961 -0.20384,0.9173 -0.17837,0.38221 -0.48413,0.71345 -0.30577,0.33125 -0.68798,0.61153 -0.3822,0.25481 -0.76441,0.48413 -0.0255,0.0255 -0.051,0.051 -0.0255,0 -0.051,0.0255 -0.15288,0.12741 -0.30577,0.22933 -0.15288,0.10192 -0.33124,0.17836 -0.0764,0.051 -0.17837,0.10192 -0.0764,0.0255 -0.20384,0.10192 -0.1274,0.10193 -0.28029,0.17837 -0.1274,0.0764 -0.2548,0.15288 -0.71345,0.33125 -1.27402,0.68797 0.81537,0.0764 1.55431,0.33125 0.76441,0.2548 1.35046,0.68797 0.58605,0.43317 0.94278,1.07018 0.35672,0.61153 0.35672,1.42691 0,0.89181 -0.3822,1.68171 -0.38221,0.78989 -0.99374,1.47787 -0.61153,0.68797 -1.35047,1.27402 -0.71345,0.56057 -1.40142,1.01922 -0.7899,0.56057 -1.75815,1.0447 -0.94278,0.45865 -1.962,0.81537 -1.01922,0.35673 -2.06392,0.56057 -1.0447,0.20385 -2.03844,0.20385 -0.28028,0 -0.76441,-0.051 -0.45865,-0.051 -0.40769,-1.50335 0.0764,-1.45239 0.35673,-1.27403 0.28028,0.15289 0.53509,0.20385 0.28028,0.051 0.58605,0.051 0.58605,0 1.45239,-0.22933 0.86633,-0.22932 1.80911,-0.61153 0.94278,-0.40768 1.88555,-0.94277 0.94278,-0.53509 1.68172,-1.14662 0.76441,-0.61154 1.22306,-1.24855 0.48413,-0.66249 0.48413,-1.2995 0,-0.38221 -0.30577,-0.58605 -0.28028,-0.20385 -0.68797,-0.30577 -0.40769,-0.10192 -0.84086,-0.1274 -0.40768,-0.0255 -0.66249,-0.0255 -0.66249,0 -1.2995,0.0764 -0.63701,0.0764 -1.29951,0.17836 -0.051,0.17837 -0.1274,0.45865 -0.0764,0.25481 -0.15288,0.50961 -0.0764,0.25481 -0.1274,0.43317 -0.051,0.17836 -0.051,0.20384 0,0.22933 -0.1274,0.38221 -0.0255,0.10192 -0.051,0.17836 0,0.051 -0.051,0.12741 -0.051,0.15288 -0.0764,0.30576 -0.0255,0.15288 -0.0764,0.30577 -0.051,0.28028 -0.1274,0.53509 -0.051,0.22932 -0.15289,0.48413 -0.051,0.10192 -0.0764,0.20384 -0.0255,0.0764 -0.051,0.20384 -0.051,0.20385 -0.051,0.30577 0,0.1274 0.0255,0.22932 0.0255,0.10193 0.0255,0.22933 v 0.17836 l -0.10192,0.15288 q -0.10192,0.12741 -0.35673,0.22933 -0.22932,0.0764 -0.35672,0.0764 -0.33125,0 -0.71346,-0.1274 -0.38221,-0.15289 -0.71345,-0.38221 -0.33125,-0.2548 -0.53509,-0.56057 -0.20384,-0.33125 -0.20384,-0.68797 0,-0.15289 0.0255,-0.28029 0.0255,-0.1274 0.051,-0.2548 0.22932,-0.6625 0.40768,-1.35047 0.17837,-0.71345 0.30577,-1.4269 -0.35673,-0.25481 -0.40769,-0.61154 v -0.20384 q -0.0255,-0.051 -0.0764,-0.10192 -0.10192,-0.1274 -0.20384,-0.28029 -0.0764,-0.15288 -0.0764,-0.30576 0,-0.30577 0.2548,-0.48413 0.25481,-0.17836 0.50961,-0.30577 0.0764,-0.051 0.15288,-0.0764 0.10192,-0.051 0.17837,-0.10192 0.15288,-0.0764 0.22932,-0.15288 l 0.15288,-0.68797 q 0.051,-0.20385 0.051,-0.40769 0,-0.20385 0.051,-0.40769 0.0255,-0.1274 0.051,-0.20384 0.051,-0.10193 0.0764,-0.20385 0,-0.33124 0.30576,-0.48413 0.30577,-0.15288 0.58605,-0.15288 0.10193,0 0.45865,0 0.35673,0 0.76442,0.0255 0.28028,0.051 0.58605,0.10192 0.33124,0.0255 0.61153,0.15289 0.051,0.0255 0.0764,0.051 0.051,0.0255 0.10192,0.0764 z"
         style="font-style:normal;font-variant:normal;font-weight:normal;font-stretch:normal;font-size:25.48046875px;font-family:Brieston;-inkscape-font-specification:'Brieston, Normal';font-variant-ligatures:normal;font-variant-caps:normal;font-variant-numeric:normal;font-feature-settings:normal;text-align:start;writing-mode:lr-tb;text-anchor:start;fill:#fae1e7;fill-opacity:1;stroke:#000000;stroke-width:0.34789425;stroke-miterlimit:4;stroke-dasharray:none"
         id="path1645"
         inkscape:connector-curvature="0" />
      <path
         d="m -296.94584,462.64555 q 0.28028,-0.33125 0.56057,-0.66249 0.28028,-0.35673 0.61153,-0.68798 0.50961,-0.56057 1.09566,-1.01921 0.58605,-0.48413 1.40142,-0.48413 0.6625,0 1.0447,0.33124 0.40769,0.33125 0.61154,0.81538 0.22932,0.48413 0.33124,1.07018 0.10192,0.56057 0.1274,1.07018 0.0255,0.1274 0.0255,0.2548 0,0.1274 0,0.25481 0,1.5543 -0.2548,3.05765 -0.25481,1.50335 -0.61153,3.0067 0.35672,0 0.53509,0.28028 0.20384,0.28029 0.20384,0.38221 0,0.30577 -0.15288,0.58605 -0.0764,0.10192 -0.1274,0.17836 -0.051,0.0764 -0.10193,0.15289 -0.33124,0.56057 -0.96825,0.73893 -0.12741,0.50961 -0.25481,1.01922 -0.1274,0.48413 -0.2548,0.99374 -0.1274,0.56057 -0.20385,1.12114 -0.0764,0.56057 -0.0764,1.14662 0,0.20384 0,0.38221 0,0.17836 0.0255,0.3822 0.0255,0.12741 0.051,0.25481 0.0255,0.15288 0.0255,0.28028 0,0.43317 -0.3822,0.61153 -0.35673,0.17837 -0.66249,0.17837 -0.25481,0 -0.43317,-0.0764 -0.15289,-0.0765 -0.22933,-0.12741 -0.81537,-0.66249 -1.01922,-1.35046 -0.17836,-0.68797 -0.17836,-1.42691 0,-0.84085 0.1274,-1.68171 0.15289,-0.86633 0.40769,-1.68171 -0.73893,0 -1.47787,0.0764 -0.73893,0.0764 -1.47786,0.20385 l -0.61153,2.14036 q -0.051,0.1274 -0.051,0.2548 0.0255,0.1274 -0.0255,0.2548 -0.051,0.20385 -0.22932,0.45865 -0.17836,0.22933 -0.63701,0.33125 -0.28029,0.10192 -0.50961,0.1274 -0.20385,0 -0.48413,0 -0.10192,0 -0.15288,0.0255 -0.12741,0.0255 -0.40769,0.0255 -0.33125,0 -0.56057,-0.10192 -0.22933,-0.1274 -0.35673,-0.30576 -0.15288,-0.17837 -0.20384,-0.35673 -0.051,-0.17836 -0.051,-0.28029 0,-0.1274 0.051,-0.33124 2.82833,-7.51674 3.36342,-8.38308 0.53509,-0.89181 1.14662,-1.73267 0.63701,-0.86633 1.40143,-1.75815 z m -0.73894,6.95617 q 0.20385,-0.0255 0.40769,-0.0255 0.22933,-0.0255 0.43317,-0.0255 h 0.48413 q 0.0764,0 0.15288,0 0.0764,-0.0255 0.15288,-0.0255 0.12741,0 0.25481,0.0255 0.15288,0.0255 0.30576,0.0255 h 0.45865 q 0.20385,-0.7899 0.35673,-1.47787 0.17836,-0.68797 0.28028,-1.35047 0.12741,-0.68797 0.17837,-1.40142 0.0764,-0.71345 0.0764,-1.52883 -2.14036,2.59901 -3.54179,5.78407 z"
         style="font-style:normal;font-variant:normal;font-weight:normal;font-stretch:normal;font-size:25.48046875px;font-family:Brieston;-inkscape-font-specification:'Brieston, Normal';font-variant-ligatures:normal;font-variant-caps:normal;font-variant-numeric:normal;font-feature-settings:normal;text-align:start;writing-mode:lr-tb;text-anchor:start;fill:#fae1e7;fill-opacity:1;stroke:#000000;stroke-width:0.34789425;stroke-miterlimit:4;stroke-dasharray:none"
         id="path1647"
         inkscape:connector-curvature="0" />
      <path
         d="m -282.37261,464.70947 q 0.12741,-0.20385 0.17837,-0.43317 0.051,-0.25481 0.051,-0.58605 -0.051,-0.10192 -0.051,-0.17837 -0.051,-0.15288 -0.0765,-0.28028 0,-0.15288 0,-0.20384 0.0255,-0.0255 0.0255,-0.051 -0.0255,0.0255 -0.10193,0.0255 -0.10192,0 -0.28028,-0.0255 -0.17836,-0.051 -0.45865,-0.051 -1.0447,0 -1.88555,0.68798 -0.84086,0.68797 -1.27403,1.57979 -0.10192,0.22932 -0.10192,0.33124 0,0.20385 0.22932,0.45865 0.9173,0.9173 1.91104,1.80911 0.99374,0.86634 2.11488,1.55431 0.10192,0.051 0.22932,0.15288 0.1274,0.0764 0.25481,0.17837 0.10192,0.10192 0.2548,0.20384 0.81538,0.58605 1.45239,1.40143 0.66249,0.78989 0.66249,1.86007 0,0.28029 -0.0764,0.48413 -0.0764,0.17836 -0.15288,0.35673 l -0.17837,0.35672 h -0.10192 q -0.30576,0.33125 -0.81537,0.56057 -0.48413,0.20385 -1.0447,0.33125 -0.53509,0.10192 -1.09566,0.15288 -0.56057,0.0255 -0.99374,0.0255 -0.25481,0 -0.84086,-0.051 -0.58605,-0.0764 -1.32498,-0.20384 -0.73893,-0.15288 -1.55431,-0.33125 -0.78989,-0.20384 -1.45239,-0.43317 -0.63701,-0.2548 -1.07018,-0.53508 -0.40768,-0.30577 -0.40768,-0.63702 0,-0.35672 0.20384,-0.53509 0.22932,-0.20384 0.53509,-0.30576 0.30577,-0.10192 0.63701,-0.1274 0.35673,-0.0255 0.61153,-0.0255 0.58605,0 1.1721,0.1274 0.86634,0.20384 1.73268,0.35672 0.89181,0.15289 1.78363,0.15289 0.28028,0 0.66249,-0.0255 0.40769,-0.0255 0.63701,-0.0765 -0.20384,-0.35672 -0.66249,-0.68797 -0.43317,-0.35672 -0.78989,-0.58605 -0.61153,-0.43317 -1.32499,-0.9173 -0.68797,-0.48412 -1.37594,-1.01921 -0.6625,-0.53509 -1.27403,-1.09566 -0.58605,-0.58606 -1.0447,-1.14663 -0.28028,-0.35672 -0.50961,-0.81537 -0.20384,-0.45865 -0.20384,-0.94278 0,-0.58605 0.15288,-1.01922 0.17837,-0.45864 0.45865,-0.91729 0.40769,-0.68798 0.96826,-1.32499 0.56057,-0.66249 1.2995,-1.14662 0.73894,-0.48413 1.65623,-0.76441 0.9173,-0.30577 2.01296,-0.30577 0.63701,0 1.37595,0.15288 0.73893,0.15289 1.37594,0.50961 0.63701,0.33125 1.09566,0.86634 0.45865,0.53509 0.53509,1.27402 0.0255,0.12741 0.0255,0.28029 0,0.15288 0,0.35672 0,0.35673 -0.051,0.71346 -0.0255,0.35672 -0.0255,0.71345 0,0.10192 0,0.20384 0.0255,0.0765 0.0255,0.17837 0,0.45865 -0.30576,0.68797 -0.28029,0.20384 -0.68798,0.30577 -0.0255,0 -0.17836,0.051 -0.2548,0.10192 -0.50961,0.10192 h -0.22932 q -0.25481,0.0764 -0.53509,0.0764 -0.38221,0 -0.63702,-0.10192 -0.2548,-0.1274 -0.40768,-0.28029 -0.15289,-0.17836 -0.20385,-0.35672 -0.051,-0.20385 -0.051,-0.38221 -0.0255,-0.10192 -0.051,-0.17836 -0.0255,-0.10193 -0.0255,-0.17837 0,-0.17836 0.10192,-0.35672 z"
         style="font-style:normal;font-variant:normal;font-weight:normal;font-stretch:normal;font-size:25.48046875px;font-family:Brieston;-inkscape-font-specification:'Brieston, Normal';font-variant-ligatures:normal;font-variant-caps:normal;font-variant-numeric:normal;font-feature-settings:normal;text-align:start;writing-mode:lr-tb;text-anchor:start;fill:#fae1e7;fill-opacity:1;stroke:#000000;stroke-width:0.34789425;stroke-miterlimit:4;stroke-dasharray:none"
         id="path1649"
         inkscape:connector-curvature="0" />
    </g>
    <path
       style="fill:#fae1e7;fill-opacity:1;stroke:#000000;stroke-width:0.26458332px;stroke-linecap:butt;stroke-linejoin:miter;stroke-opacity:1"
       d="m 122.08631,131.25744 5.29166,-5.66964 1.88989,3.21279 z"
       id="path861"
       inkscape:connector-curvature="0" />
  </g>
</svg>
