<?xml version="1.0" encoding="UTF-8" standalone="no"?>
<!-- Created with Inkscape (http://www.inkscape.org/) -->

<svg
   xmlns:dc="http://purl.org/dc/elements/1.1/"
   xmlns:cc="http://creativecommons.org/ns#"
   xmlns:rdf="http://www.w3.org/1999/02/22-rdf-syntax-ns#"
   xmlns:svg="http://www.w3.org/2000/svg"
   xmlns="http://www.w3.org/2000/svg"
   xmlns:sodipodi="http://sodipodi.sourceforge.net/DTD/sodipodi-0.dtd"
   xmlns:inkscape="http://www.inkscape.org/namespaces/inkscape"
   width="210mm"
   height="297mm"
   viewBox="0 0 210 297"
   version="1.1"
   id="svg1555"
   inkscape:version="0.92.3 (2405546, 2018-03-11)"
   sodipodi:docname="logo27.svg">
  <defs
     id="defs1549" />
  <sodipodi:namedview
     id="base"
     pagecolor="#ffffff"
     bordercolor="#666666"
     borderopacity="1.0"
     inkscape:pageopacity="0.0"
     inkscape:pageshadow="2"
     inkscape:zoom="0.175"
     inkscape:cx="773.44568"
     inkscape:cy="243.65842"
     inkscape:document-units="mm"
     inkscape:current-layer="layer1"
     showgrid="false"
     inkscape:window-width="1366"
     inkscape:window-height="711"
     inkscape:window-x="0"
     inkscape:window-y="27"
     inkscape:window-maximized="1" />
  <metadata
     id="metadata1552">
    <rdf:RDF>
      <cc:Work
         rdf:about="">
        <dc:format>image/svg+xml</dc:format>
        <dc:type
           rdf:resource="http://purl.org/dc/dcmitype/StillImage" />
        <dc:title></dc:title>
      </cc:Work>
    </rdf:RDF>
  </metadata>
  <g
     inkscape:label="Capa 1"
     inkscape:groupmode="layer"
     id="layer1">
    <path
       style="opacity:1;fill:#484f56;fill-opacity:1;stroke:none;stroke-width:0.30299997;stroke-linecap:round;stroke-linejoin:round;stroke-miterlimit:4;stroke-dasharray:none;stroke-opacity:1"
       d="M 104.83653,56.818049 A 84.45717,84.45717 0 0 0 19.866521,140.6496 84.45717,84.45717 0 0 0 103.58905,225.72761 l 0.43513,0.003 a 84.45717,84.45717 0 0 0 84.75348,-84.05109 84.45717,84.45717 0 0 0 -83.94113,-84.861471 z m -6.517427,36.89956 c 23.538817,-0.114779 40.682707,6.21448 52.243297,26.720321 l -1.00406,-1.92392 c 0,0 2.64583,-15.49704 5.29166,-10.58333 2.64584,4.91368 3.21297,-4.34666 5.48082,-3.21273 4.98523,4.28302 7.0639,-5.715422 8.12612,-5.85854 1.51191,0.377931 4.15817,2.45676 3.21323,4.53562 -0.66497,1.46296 -1.13741,3.37415 -1.3622,4.38992 0.22574,0.14258 0.47821,0.30689 0.79481,0.5235 3.59076,2.45684 1.13426,7.18161 -0.18863,7.3706 -1.32291,0.189 -3.591,0.75602 -3.591,0.75602 0,0 1.51183,1.51197 0.5669,3.40186 -0.94496,1.88986 -4.9134,2.26756 -4.9134,2.26756 0,0 2.07894,1.51198 0.75602,2.07896 -1.32291,0.56695 -9.63869,3.02408 -9.63869,3.02408 l -1.30534,-2.50267 c 1.05312,2.18141 2.0543,4.49977 3.00344,6.96648 0.0931,0.25466 0.18283,0.50739 0.27233,0.76018 2.12456,-2.97945 4.56769,-6.46414 5.0183,-5.06325 3.17074,9.85722 4.9475,-1.45595 6.20427,-1.36687 3.42175,5.61144 8.48228,-3.25887 9.53688,-3.0675 1.3217,0.82574 3.19768,3.61937 1.65777,5.30561 -1.08365,1.18663 -2.12243,2.8589 -2.64943,3.75584 0.17082,0.20529 0.36031,0.43985 0.59479,0.74364 2.65829,3.44429 -1.13533,7.18118 -2.45206,6.95306 -1.81655,-3.53038 -3.77531,-1.22341 -3.64887,-0.38809 0,0 1.15343,4.71463 -0.50953,3.41116 -1.63142,-1.27876 -5.59787,-3.52266 -5.37382,0.64234 0,0 1.51135,2.07927 0.078,2.21073 -0.6812,0.0623 -3.00858,0.0417 -5.25085,0.005 0.14486,1.18419 0.24273,2.34143 0.29663,3.47368 2.81527,-1.92304 5.75289,-3.859 5.69889,-2.51251 -0.41498,10.34634 5.14585,0.33597 6.2952,0.85214 1.28177,6.4462 9.0859,-0.14104 10.01025,0.40154 0.95684,1.23013 1.75686,4.49875 -0.26924,5.55212 -1.42584,0.74127 -2.9767,1.95399 -3.78013,2.61483 0.0897,0.25146 0.1873,0.53699 0.30284,0.90277 1.31072,4.14872 -3.53751,6.35169 -4.69532,5.68441 -0.49073,-3.93991 -3.12359,-2.44734 -3.29232,-1.61954 0,0 -0.53925,4.82336 -1.65208,3.02721 -1.09175,-1.76205 -4.04345,-5.23418 -5.26635,-1.24646 0,0 0.70321,2.47256 -0.68781,2.10273 -0.62645,-0.16653 -2.62877,-0.91869 -4.61523,-1.68156 -6.9437,19.30715 -30.8999,27.10619 -54.94962,25.50234 -23.764737,-1.58486 -46.202047,-5.71455 -51.807157,-25.97259 -1.92622,0.73851 -3.837782,1.45585 -4.445741,1.61748 -1.39102,0.36981 -0.68729,-2.10272 -0.68729,-2.10272 -1.22287,-3.9877 -4.17459,-0.51612 -5.26634,1.24592 -1.112841,1.79615 -1.65262,-3.0272 -1.65262,-3.0272 -0.16875,-0.8278 -2.801591,-2.31987 -3.292311,1.62004 -1.157819,0.66728 -6.00604,-1.53567 -4.69532,-5.68438 0.11554,-0.36568 0.213121,-0.65135 0.30284,-0.90279 -0.80344,-0.66085 -2.35432,-1.87407 -3.78016,-2.61534 -2.0261,-1.05334 -1.22605,-4.3215 -0.26921,-5.5516 0.92437,-0.54259 8.72844,6.0447 10.010241,-0.40153 1.14935,-0.51616 6.71068,9.4942 6.29574,-0.85214 -0.0575,-1.43399 3.26549,0.84473 6.232181,2.87578 0.0709,-1.24104 0.18717,-2.52496 0.34311,-3.84627 -2.41959,0.0434 -5.086721,0.0724 -5.831152,0.004 -1.43335,-0.13144 0.078,-2.2107 0.078,-2.2107 0.22403,-4.16501 -3.74189,-1.92111 -5.37331,-0.64235 -1.662991,1.30352 -0.50954,-3.41064 -0.50954,-3.41064 0.126419,-0.83532 -1.83282,-3.14232 -3.649371,0.38809 -1.31672,0.2281 -5.11037,-3.50877 -2.45205,-6.95306 0.23442,-0.3038 0.42399,-0.53832 0.594781,-0.74361 -0.526971,-0.89697 -1.56577,-2.56974 -2.649431,-3.75637 -1.53987,-1.68625 0.33605,-4.4794 1.65777,-5.30511 1.05461,-0.19137 6.11566,8.67897 9.537391,3.06752 1.25679,-0.0891 3.03355,11.22355 6.204292,1.36631 0.45678,-1.41999 2.96013,2.17914 5.10408,5.18367 0.52739,-1.75644 1.12879,-3.55066 1.8221,-5.36297 -0.1911,-0.0565 -8.268752,-2.4447 -9.576172,-3.00498 -1.32291,-0.56698 0.75605,-2.07894 0.75605,-2.07894 0,0 -3.96899,-0.37769 -4.91392,-2.26759 -0.94493,-1.88986 0.5669,-3.40185 0.5669,-3.40185 0,0 -2.26754,-0.56703 -3.59048,-0.75602 -1.322891,-0.18899 -3.779941,-4.91376 -0.18915,-7.3706 0.316599,-0.21664 0.56907,-0.38087 0.79478,-0.52348 -0.22474,-1.01568 -0.69665,-2.9274 -1.36168,-4.39044 -0.944901,-2.07889 1.70082,-4.157638 3.212729,-4.535648 1.062251,0.14311 3.14145,10.141558 8.126653,5.858558 2.26785,-1.13392 2.83446,8.12692 5.48029,3.21323 2.28648,-4.24629 4.56496,6.71534 5.14387,9.7808 6.96717,-12.25333 18.5224,-22.975569 36.70472,-23.420249 0.9016,-0.02209 1.79385,-0.0358 2.67737,-0.0398 z"
       id="path1540"
       inkscape:connector-curvature="0" />
  </g>
</svg>
