<?xml version="1.0" encoding="UTF-8" standalone="no"?>
<!-- Created with Inkscape (http://www.inkscape.org/) -->

<svg
   xmlns:dc="http://purl.org/dc/elements/1.1/"
   xmlns:cc="http://creativecommons.org/ns#"
   xmlns:rdf="http://www.w3.org/1999/02/22-rdf-syntax-ns#"
   xmlns:svg="http://www.w3.org/2000/svg"
   xmlns="http://www.w3.org/2000/svg"
   xmlns:sodipodi="http://sodipodi.sourceforge.net/DTD/sodipodi-0.dtd"
   xmlns:inkscape="http://www.inkscape.org/namespaces/inkscape"
   width="210mm"
   height="297mm"
   viewBox="0 0 210 297"
   version="1.1"
   id="svg1555"
   inkscape:version="0.92.3 (2405546, 2018-03-11)"
   sodipodi:docname="logo1.svg">
  <defs
     id="defs1549" />
  <sodipodi:namedview
     id="base"
     pagecolor="#ffffff"
     bordercolor="#666666"
     borderopacity="1.0"
     inkscape:pageopacity="0.0"
     inkscape:pageshadow="2"
     inkscape:zoom="0.35"
     inkscape:cx="291.42857"
     inkscape:cy="594.28571"
     inkscape:document-units="mm"
     inkscape:current-layer="layer1"
     showgrid="false"
     inkscape:window-width="1366"
     inkscape:window-height="711"
     inkscape:window-x="0"
     inkscape:window-y="27"
     inkscape:window-maximized="1" />
  <metadata
     id="metadata1552">
    <rdf:RDF>
      <cc:Work
         rdf:about="">
        <dc:format>image/svg+xml</dc:format>
        <dc:type
           rdf:resource="http://purl.org/dc/dcmitype/StillImage" />
        <dc:title></dc:title>
      </cc:Work>
    </rdf:RDF>
  </metadata>
  <g
     inkscape:label="Capa 1"
     inkscape:groupmode="layer"
     id="layer1">
    <path
       style="opacity:1;fill:#f35780;fill-opacity:1;stroke:none;stroke-width:0.30299997;stroke-linecap:round;stroke-linejoin:round;stroke-miterlimit:4;stroke-dasharray:none;stroke-opacity:1"
       d="m 104.08005,57.573993 a 84.45717,84.45717 0 0 0 -84.969476,83.831587 84.45717,84.45717 0 0 0 83.722516,85.07799 l 0.43461,0.003 a 84.45717,84.45717 0 0 0 84.75401,-84.05069 84.45717,84.45717 0 0 0 -83.94166,-84.861477 z m -6.517426,29.678821 h 5.29e-4 c 23.541097,-0.114831 40.685837,6.216198 52.246427,26.727036 l -1.00716,-1.93011 c 0,0 2.64583,-15.497008 5.29167,-10.58333 2.64583,4.91368 3.21244,-4.346648 5.48029,-3.212728 4.9852,4.283018 7.06437,-5.71542 8.12662,-5.85856 1.51191,0.37798 4.15766,2.45679 3.21272,4.53564 -0.66498,1.46296 -1.13693,3.374178 -1.36167,4.389918 0.22567,0.14258 0.47829,0.30744 0.79478,0.524 3.5908,2.45685 1.13377,7.18162 -0.18912,7.37061 -1.32294,0.18899 -3.59047,0.75552 -3.59047,0.75552 0,0 1.5118,1.51193 0.56689,3.40185 -0.94493,1.88987 -4.91392,2.26806 -4.91392,2.26806 0,0 2.07894,1.51199 0.75601,2.07896 -1.32291,0.56695 -9.63815,3.02358 -9.63815,3.02358 l -1.30691,-2.50528 c 1.0536,2.1822 2.05547,4.50138 3.00497,6.96909 0.093,0.25443 0.18243,0.50705 0.27183,0.75965 2.12453,-2.97939 4.56769,-6.46359 5.01831,-5.06275 3.17074,9.85724 4.9475,-1.45542 6.20427,-1.36631 3.42175,5.61144 8.48227,-3.2589 9.53688,-3.06752 1.3217,0.82573 3.1977,3.61886 1.6578,5.3051 -1.08374,1.18674 -2.12201,2.85946 -2.64896,3.75637 0.17068,0.20516 0.36058,0.43958 0.59481,0.74309 2.65832,3.44429 -1.13583,7.18118 -2.45258,6.95306 -1.81655,-3.53039 -3.77529,-1.22288 -3.64888,-0.38756 0,0 1.15349,4.71413 -0.5095,3.41064 -1.63142,-1.27874 -5.59734,-3.52264 -5.37331,0.64235 0,0 1.51135,2.07926 0.078,2.2107 -0.68117,0.0623 -3.00908,0.0417 -5.25137,0.005 0.14483,1.18401 0.24326,2.34156 0.29714,3.47368 2.81528,-1.92304 5.75237,-3.85849 5.69836,-2.512 -0.41493,10.34634 5.1464,0.33546 6.29575,0.85164 1.28177,6.4462 9.08536,-0.14055 10.00971,0.40203 0.95684,1.23013 1.75739,4.49826 -0.26871,5.5516 -1.42594,0.74133 -2.97675,1.95455 -3.78013,2.61535 0.0897,0.25143 0.18728,0.53655 0.30282,0.90228 1.31072,4.14867 -3.53751,6.3522 -4.69533,5.68492 -0.49072,-3.93989 -3.12409,-2.44785 -3.29281,-1.62007 0,0 -0.53923,4.82333 -1.65209,3.0272 -1.09173,-1.76207 -4.04348,-5.23362 -5.26635,-1.24589 0,0 0.70371,2.472 -0.6873,2.10219 -0.6264,-0.16653 -2.6284,-0.91877 -4.6147,-1.68156 -2.74105,7.62201 -8.1334,13.45009 -15.13655,17.61442 6.00869,6.96161 11.2999,13.65872 8.40207,17.339 -7.74523,5.78929 -14.80449,3.68662 -21.54493,-2.07894 -13.27537,5.78194 -25.21139,13.05618 -55.562505,-0.18913 0,0 -12.284161,4.72478 -16.441903,4.72478 -4.157739,0 -3.96888,-1.51154 -5.480788,-6.80321 -1.304711,-4.56647 7.774069,-12.48315 10.538378,-15.06059 -5.486289,-3.72771 -9.554419,-8.87015 -11.5316,-16.01607 -1.926029,0.73842 -3.837329,1.45537 -4.445209,1.61695 -1.39102,0.36986 -0.68781,-2.1027 -0.68781,-2.1027 -1.2229,-3.98772 -4.174601,-0.51615 -5.266351,1.24592 -1.112859,1.7961 -1.65208,-3.02723 -1.65208,-3.02723 -0.168749,-0.82777 -2.80159,-2.31981 -3.292319,1.62007 -1.157811,0.66728 -6.00604,-1.53569 -4.695321,-5.68441 0.11554,-0.36573 0.21262,-0.65133 0.30231,-0.90279 -0.80348,-0.66085 -2.353839,-1.87359 -3.779619,-2.61482 -2.0261,-1.05336 -1.22608,-4.32199 -0.26924,-5.55212 0.92437,-0.54258 8.728469,6.04467 10.010239,-0.40153 1.14935,-0.51618 6.710181,9.49417 6.295241,-0.85215 -0.0575,-1.43401 3.26596,0.84476 6.23268,2.87581 0.0011,-0.0169 5.29e-4,-0.0331 0.0021,-0.0501 0.0711,-1.22481 0.187798,-2.49266 0.34158,-3.79563 -2.41962,0.0429 -5.086721,0.0714 -5.831181,0.003 -1.43333,-0.13145 0.0775,-2.2102 0.0775,-2.2102 0.22402,-4.16499 -3.7424,-1.92109 -5.37382,-0.64233 -1.66298,1.3035 -0.50953,-3.41117 -0.50953,-3.41117 0.12641,-0.83529 -1.83235,-3.14229 -3.64887,0.38809 -1.31673,0.22813 -5.11038,-3.50877 -2.45205,-6.95306 0.23447,-0.3038 0.42399,-0.53832 0.59478,-0.74361 -0.52697,-0.89699 -1.56578,-2.56921 -2.64943,-3.75584 -1.5399,-1.68627 0.33607,-4.4799 1.65777,-5.30564 1.0546,-0.19137 6.11513,8.67897 9.53688,3.06753 1.25677,-0.0891 3.03353,11.22407 6.20427,1.36683 0.456751,-1.41996 2.960691,2.17866 5.104599,5.18314 0.52737,-1.7563 1.128371,-3.55026 1.821611,-5.36244 -0.192461,-0.0569 -8.26892,-2.44526 -9.57617,-3.00551 -1.32292,-0.56698 0.75602,-2.07894 0.75602,-2.07894 0,0 -3.96846,-0.37769 -4.91339,-2.26758 -0.94494,-1.88987 0.56689,-3.40186 0.56689,-3.40186 0,0 -2.26809,-0.56703 -3.591,-0.75602 -1.32289,-0.18899 -3.77939,-4.91376 -0.18862,-7.3706 0.3166,-0.21662 0.56906,-0.3809 0.79478,-0.52348 -0.22471,-1.015708 -0.69715,-2.926868 -1.36218,-4.389908 -0.94494,-2.07889 1.70082,-4.15767 3.21273,-4.53565 1.06225,0.14314 3.14139,10.141558 8.126621,5.85856 2.267849,-1.13392 2.834978,8.126388 5.48082,3.212708 2.286449,-4.246298 4.56493,6.71528 5.14387,9.7808 0.0431,-0.0759 0.0846,-0.15219 0.128159,-0.22789 6.980531,-12.158318 18.506761,-22.750459 36.576561,-23.192369 0.90162,-0.02209 1.793848,-0.0358 2.677369,-0.0398 z"
       id="path1544"
       inkscape:connector-curvature="0" />
  </g>
</svg>
